<svg width="80" height="80" viewBox="0 0 80 80" fill="none" xmlns="http://www.w3.org/2000/svg">
<g clip-path="url(#clip0_907_1683)">
<path d="M40 80C62.0914 80 80 62.0914 80 40C80 17.9086 62.0914 0 40 0C17.9086 0 0 17.9086 0 40C0 62.0914 17.9086 80 40 80Z" fill="#FFA40B"/>
<path d="M46.2864 79.4767C46.4567 79.4573 46.627 79.4368 46.7971 79.4151C48.1114 79.1881 49.4136 78.8954 50.6987 78.5382C51.9844 78.1833 53.2517 77.7643 54.4956 77.2828C55.7374 76.7993 56.9543 76.254 58.1417 75.649C59.3301 75.0436 60.4875 74.3792 61.6094 73.6582C62.7316 72.9385 63.817 72.1632 64.8617 71.3351C65.9072 70.5058 66.9105 69.6247 67.8679 68.6951C68.8248 67.7658 69.7347 66.7892 70.5941 65.769C71.4528 64.7484 72.26 63.6856 73.0125 62.5844C73.7664 61.4836 74.4647 60.3457 75.1048 59.1751C75.745 58.0049 76.3262 56.8034 76.8464 55.5751C77.2967 54.4918 77.6991 53.3892 78.0525 52.2705L61.1602 35.3782C60.8987 35.2859 60.6771 35.1936 60.2771 35.0951C59.071 34.7998 57.3848 34.5351 55.6494 34.2921L54.3571 34.1075L40.1264 19.8798C39.9571 20.0951 39.7971 20.2828 39.5787 20.6305C38.9233 21.6828 38.151 23.2028 37.3848 24.7721C36.6217 26.3413 35.8587 27.9628 35.1694 29.3013C34.8616 29.9091 34.528 30.5035 34.1694 31.0828C33.8494 31.5905 33.6217 31.9998 33.0341 32.4151C32.4494 32.8336 31.9817 32.9198 31.3941 33.0613C30.8094 33.1936 30.1325 33.3105 29.3879 33.4182C27.8925 33.6367 26.1048 33.8305 24.3694 34.0428C22.631 34.2582 20.9387 34.4951 19.7294 34.7721C19.3294 34.8644 19.1048 34.9536 18.8402 35.0428C18.9941 35.2736 19.1233 35.4798 19.3879 35.7936C19.8802 36.3751 20.5264 37.0551 21.2433 37.769L27.9264 44.4521C28.1971 44.7875 28.4402 45.1167 28.6033 45.6428C28.8217 46.3259 28.7633 46.7936 28.7141 47.3905C28.6505 48.066 28.5581 48.7384 28.4371 49.4059C28.1817 50.889 27.8094 52.6428 27.4771 54.3567C27.1585 55.8868 26.9121 57.4311 26.7387 58.9844C26.7017 59.3936 26.7141 59.6305 26.7202 59.9075L46.2864 79.4767V79.4767Z" fill="#FF7712"/>
<path d="M40.1206 19.8685C40.2849 20.0897 40.4426 20.2779 40.6529 20.6305C41.2937 21.6914 42.0429 23.2244 42.7822 24.8052C43.5216 26.3889 44.2544 28.0234 44.9247 29.3771C45.2599 30.0494 45.5753 30.653 45.8908 31.167C46.203 31.681 46.4297 32.0933 47.008 32.5207C47.5864 32.948 48.0497 33.0406 48.6346 33.19C49.2195 33.3364 49.8899 33.4589 50.6358 33.5814C52.1276 33.8235 53.9119 34.0447 55.6436 34.2838C57.3786 34.5258 59.0644 34.7918 60.2703 35.0846C60.6712 35.1833 60.8947 35.2758 61.1575 35.3684C60.9965 35.5955 60.8651 35.8017 60.5989 36.1095C59.7807 37.0448 58.5517 38.2311 57.2702 39.4174C55.9887 40.6097 54.6578 41.811 53.5767 42.8629C53.0346 43.3888 52.5581 43.8789 52.1638 44.3331C51.7727 44.7873 51.4474 45.1309 51.2207 45.8122C50.9907 46.4906 51.0465 46.9596 51.086 47.5602C51.1254 48.1579 51.2141 48.8333 51.3291 49.5803C51.5591 51.0685 51.9009 52.8285 52.2065 54.5467C52.5121 56.2649 52.7815 57.9473 52.8735 59.1844C52.9031 59.5908 52.8834 59.833 52.8735 60.111C52.6107 60.0303 52.3708 59.9673 51.9929 59.8089C50.8526 59.3248 49.3411 58.5239 47.8131 57.6783C46.2818 56.8296 44.7243 55.9395 43.3836 55.2372C42.7862 54.9175 42.1732 54.6223 41.5467 54.3527C40.9914 54.1226 40.5642 53.9194 39.8445 53.9135C39.1249 53.9135 38.6945 54.1045 38.1358 54.3257C37.5772 54.5498 36.9594 54.8427 36.2858 55.1803C34.9385 55.8586 33.3613 56.7281 31.8168 57.5499C30.2724 58.3716 28.7543 59.1458 27.6042 59.6119C27.223 59.7673 26.9864 59.8239 26.717 59.9016C26.7137 59.6237 26.6973 59.3818 26.7334 58.9754C26.8451 57.7413 27.1409 56.062 27.476 54.3497C27.8079 52.6375 28.1792 50.8831 28.4323 49.3979C28.5531 48.7291 28.6452 48.0565 28.7083 47.3811C28.7576 46.7835 28.82 46.3142 28.6031 45.6299C28.3863 44.9455 28.0675 44.5991 27.6831 44.1359C27.2431 43.6213 26.7793 43.1237 26.2931 42.6447C25.2317 41.575 23.9173 40.3528 22.6555 39.1426C21.5089 38.0687 20.4178 36.9469 19.3859 35.7808C19.1198 35.4671 18.9916 35.2609 18.8372 35.0308C19.1 34.9412 19.3268 34.8515 19.7244 34.7589C20.9369 34.481 22.6292 34.2448 24.3675 34.0326C26.1025 33.8205 27.8901 33.6294 29.3852 33.4113C30.1344 33.3037 30.8081 33.187 31.393 33.0496C31.9779 32.9121 32.4445 32.8256 33.0294 32.4072C33.6143 31.9889 33.8509 31.5794 34.1696 31.0714C34.4917 30.5634 34.817 29.9658 35.162 29.2964C35.8521 27.9547 36.6144 26.3321 37.38 24.7603C38.0441 23.3519 38.7765 21.971 39.5751 20.6216C39.792 20.272 39.9497 20.0867 40.1206 19.8685V19.8685Z" fill="white"/>
</g>
<defs>
<clipPath id="clip0_907_1683">
<rect width="80" height="80" fill="white"/>
</clipPath>
</defs>
</svg>
