<svg width="80" height="80" viewBox="0 0 80 80" fill="none" xmlns="http://www.w3.org/2000/svg">
<g clip-path="url(#clip0_907_1644)">
<g filter="url(#filter0_d_907_1644)">
<circle cx="40" cy="40" r="39.2157" fill="white"/>
</g>
<path fill-rule="evenodd" clip-rule="evenodd" d="M39.994 0C50.6027 0 60.7768 4.21427 68.2783 11.7157C75.7797 19.2172 79.994 29.3913 79.994 40C79.994 50.6087 75.7797 60.7828 68.2783 68.2843C60.7768 75.7857 50.6027 80 39.994 80C29.3854 80 19.2112 75.7857 11.7097 68.2843C4.20829 60.7828 -0.00598145 50.6087 -0.00598145 40C-0.00598145 29.3913 4.20829 19.2172 11.7097 11.7157C19.2112 4.21427 29.3854 0 39.994 0V0Z" fill="#512DA8"/>
<mask id="mask0_907_1644" style="mask-type:alpha" maskUnits="userSpaceOnUse" x="-1" y="0" width="81" height="80">
<path fill-rule="evenodd" clip-rule="evenodd" d="M39.994 0C50.6027 0 60.7768 4.21427 68.2783 11.7157C75.7797 19.2172 79.994 29.3913 79.994 40C79.994 50.6087 75.7797 60.7828 68.2783 68.2843C60.7768 75.7857 50.6027 80 39.994 80C29.3854 80 19.2112 75.7857 11.7097 68.2843C4.20829 60.7828 -0.00598145 50.6087 -0.00598145 40C-0.00598145 29.3913 4.20829 19.2172 11.7097 11.7157C19.2112 4.21427 29.3854 0 39.994 0V0Z" fill="#512DA8"/>
</mask>
<g mask="url(#mask0_907_1644)">
<path fill-rule="evenodd" clip-rule="evenodd" d="M54.5598 17.296L98.9248 61.661V66.8405L54.5598 22.4755V17.296ZM54.5598 23.9637L98.9248 68.3287V84.6521L54.5598 40.2871V23.9637Z" fill="#412780"/>
<path fill-rule="evenodd" clip-rule="evenodd" d="M61.2275 39.6894L105.592 84.0544L105.522 84.031L105.464 83.9841L105.405 83.949L105.346 83.9021L105.3 83.8552L60.9228 39.4785L60.9814 39.5371L61.0282 39.584L61.0868 39.6191L61.1571 39.6543L61.2275 39.6894ZM59.7275 26.7174L104.093 71.0824L103.589 70.5668L103.003 70.0864L102.347 69.6411L101.62 69.2427L100.811 68.8911L99.9092 68.5864L98.9248 68.3286L54.5598 23.9636L55.5441 24.2097L56.4464 24.5144L57.255 24.8776L57.9815 25.2761L58.6377 25.7213L59.2119 26.2018L59.7275 26.7174Z" fill="#412780"/>
<path fill-rule="evenodd" clip-rule="evenodd" d="M62.165 39.2559L106.53 83.6209L106.495 83.6912L106.46 83.7615L106.425 83.8201L106.378 83.867L106.331 83.9256L106.272 83.9607L106.214 84.0076L106.155 84.031L106.085 84.0662L106.014 84.0779L105.944 84.0896L105.874 84.1013H105.804L105.733 84.0896L105.663 84.0779L105.593 84.0544L61.2276 39.6894L61.2979 39.7129L61.3682 39.7246L61.4385 39.7363H61.5088L61.5791 39.7246L61.6494 39.7129L61.7197 39.6894L61.7783 39.666L61.8486 39.6308L61.9072 39.5957L61.9541 39.5488L62.0127 39.5019L62.0596 39.4551L62.0947 39.3848L62.1299 39.3262L62.165 39.2559ZM54.5599 40.2871L98.925 84.6521L98.8546 84.6286L98.7843 84.6052L98.7023 84.5818L98.6203 84.5583L98.5383 84.5466L98.4679 84.5232L98.3859 84.5115L98.3039 84.488L98.2101 84.4763L98.1281 84.4646L98.0461 84.4529L97.964 84.4412H97.8703L97.7883 84.4294H97.6125L53.2358 40.0527L53.3295 40.0644H53.4233L53.5053 40.0761H53.5873L53.6811 40.0879L53.7631 40.0996L53.8451 40.1113L53.9271 40.123L54.0092 40.1347L54.0912 40.1582L54.1732 40.1699L54.2553 40.1933L54.3373 40.2168L54.4076 40.2402L54.4896 40.2636L54.5599 40.2871ZM53.2358 40.0527L97.6125 84.4294H97.4602L53.0952 40.0527H53.2241H53.2358ZM54.3959 16.8273L98.7609 61.1923L98.8078 61.2509L98.8429 61.3095L98.8781 61.3798L98.9015 61.4501L98.9132 61.5204L98.925 61.5907V61.661L54.5599 17.296V17.214L54.5482 17.1437L54.5248 17.0734L54.5013 17.0148L54.4779 16.9445L54.431 16.8859L54.3959 16.8273ZM61.2627 26.1432L105.628 70.52L106.085 71.1645L106.483 71.8324L106.811 72.5355L107.081 73.2386L107.292 73.9651L107.444 74.6916L107.561 75.4299L107.632 76.1564L107.667 76.8829V77.586L107.632 78.2891L107.573 78.957L107.503 79.6015L107.409 80.2226L107.303 80.7968L107.186 81.3358L107.069 81.828L106.952 82.2733L106.846 82.66L106.741 82.9998L106.659 83.2576L106.589 83.4568L106.542 83.5857L106.53 83.6209L62.165 39.2559L62.1767 39.209L62.2236 39.0918L62.2939 38.8926L62.376 38.6231L62.4697 38.295L62.5869 37.9083L62.7041 37.463L62.8212 36.9708L62.9267 36.4318L63.0322 35.8459L63.1259 35.2365L63.2079 34.592L63.2665 33.9124L63.29 33.221V32.5179L63.2665 31.7914L63.1962 31.0649L63.079 30.3266L62.915 29.6001L62.7041 28.8736L62.4463 28.1587L62.1182 27.4674L61.7197 26.7994L61.2627 26.1432ZM24.4208 37.7325L68.7858 82.0975L24.4208 37.7325ZM36.9709 40.3691L81.3477 84.7341L69.7701 89.0815L25.4051 44.7048L36.9709 40.3691Z" fill="#412780"/>
<path fill-rule="evenodd" clip-rule="evenodd" d="M38.4475 39.3496L82.8125 83.7264L82.7188 96.5578L38.342 52.1927L38.4475 39.3496ZM25.4052 44.7048L69.7702 89.0816V100.05L25.4052 55.6847V44.7048Z" fill="#412780"/>
<path fill-rule="evenodd" clip-rule="evenodd" d="M38.2951 59.3877L82.6718 103.753L82.5547 103.823L82.4375 103.882L82.3203 103.952L82.2031 104.011L82.0859 104.057L81.9687 104.116L81.8516 104.175L81.7344 104.221L81.6172 104.268L81.5 104.315L81.3828 104.362L81.2657 104.397L81.1485 104.444L81.0313 104.479L80.9141 104.514L80.7969 104.55L80.6797 104.573L80.5743 104.608L80.4571 104.632L80.3399 104.655L80.2227 104.678L80.1173 104.702L80.0001 104.714L79.8829 104.725L79.7774 104.749L79.672 104.76H79.5548L79.4493 104.772H79.3439L79.2384 104.784H79.0275L34.6507 60.4072H35.0843L35.1898 60.3954L35.2952 60.3837L35.4124 60.372L35.5179 60.3603L35.6351 60.3486L35.7405 60.3251L35.8577 60.3134L35.9749 60.29L36.0804 60.2665L36.1975 60.2314L36.3147 60.2079L36.4319 60.1728L36.5491 60.1376L36.6663 60.1025L36.7835 60.0673L36.9006 60.0322L37.0178 59.9853L37.135 59.9502L37.2522 59.9033L37.3694 59.8564L37.4865 59.7978L37.6037 59.7509L37.7209 59.6923L37.8381 59.6338L37.9553 59.5752L38.0725 59.5166L38.1779 59.458L38.2951 59.3877ZM31.8618 58.9893L76.2268 103.366L31.8501 58.9893H31.8618ZM31.8618 58.9893L76.2268 103.366L31.8618 58.9893Z" fill="#412780"/>
<path fill-rule="evenodd" clip-rule="evenodd" d="M34.6508 60.4072L79.0276 104.784L78.9104 104.772H78.7932L78.676 104.761L78.5705 104.749L78.4534 104.737L78.3479 104.714L78.2424 104.702L78.137 104.678L78.0315 104.655L77.9378 104.62L77.8323 104.596L77.7386 104.561L77.6331 104.526L77.5393 104.491L77.4456 104.444L77.3636 104.397L77.2698 104.362L77.1878 104.304L77.0941 104.257L77.012 104.198L76.9417 104.151L76.8597 104.093L76.7894 104.022L32.4126 59.6573L32.4947 59.7159L32.565 59.7744L32.647 59.833L32.729 59.8916L32.8111 59.9385L32.9048 59.9854L32.9868 60.0322L33.0806 60.0791L33.1743 60.1143L33.2681 60.1494L33.3618 60.1963L33.4673 60.2197L33.561 60.2549L33.6665 60.2783L33.7719 60.3018L33.8774 60.3252L33.9829 60.3486L34.0883 60.3604L34.2055 60.3838L34.311 60.3955H34.4282L34.5336 60.4072H34.6508ZM40.6974 53.0131L85.0624 97.3781L85.1327 97.4484L85.203 97.507L85.2616 97.589L85.3202 97.6593L85.3905 97.7296L85.4374 97.8117L85.496 97.8937L85.5429 97.9757L41.1778 53.6107L41.131 53.5287L41.0724 53.4466L41.0138 53.3646L40.9552 53.2943L40.8966 53.2123L40.8263 53.142L40.7677 53.0716L40.6974 53.0131ZM41.0138 56.7394L85.3788 101.104L85.3319 101.198L85.2733 101.292L85.2147 101.386L85.1562 101.479L85.0976 101.561L85.039 101.655L84.9687 101.749L84.8984 101.831L84.828 101.925L84.7577 102.018L84.6874 102.101L84.6054 102.194L84.5351 102.276L84.4531 102.358L84.371 102.452L84.289 102.534L84.1953 102.616L84.1132 102.698L84.0195 102.78L83.9257 102.862L83.832 102.944L83.7383 103.026L83.6328 103.108L83.5391 103.179L83.4336 103.261L83.3281 103.331L83.2227 103.401L83.1172 103.483L83 103.554L82.8945 103.624L82.7774 103.694L82.6719 103.753L38.2952 59.3877L38.4123 59.3174L38.5295 59.2471L38.635 59.1768L38.7522 59.1065L38.8576 59.0362L38.9631 58.9659L39.0686 58.8839L39.1623 58.8136L39.2678 58.7315L39.3615 58.6612L39.467 58.5792L39.5607 58.4972L39.6545 58.4151L39.7365 58.3331L39.8302 58.2511L39.9123 58.1691L40.006 58.0753L40.088 57.9933L40.1584 57.9113L40.2404 57.8175L40.3224 57.7355L40.3927 57.6417L40.463 57.5597L40.5333 57.466L40.6036 57.3722L40.6622 57.2902L40.7325 57.1964L40.7911 57.1027L40.8497 57.0207L40.9083 56.9269L40.9552 56.8332L41.0138 56.7394ZM25.8153 55.9778L70.192 100.354L70.2506 100.401L70.3092 100.46L70.3678 100.519L70.4264 100.589L70.485 100.647L70.5319 100.718L70.5905 100.788L70.6373 100.858L70.6842 100.929L70.7311 100.999L26.3543 56.634L26.3192 56.5637L26.2723 56.4816L26.2254 56.4113L26.1669 56.3527L26.12 56.2824L26.0614 56.2121L26.0028 56.1535L25.9442 56.0949L25.8856 56.0364L25.8153 55.9778ZM26.3661 56.634L70.7311 100.999L26.3661 56.634Z" fill="#412780"/>
<path fill-rule="evenodd" clip-rule="evenodd" d="M26.3658 56.6339L70.7309 100.999V101.011H70.7426V101.022L70.7543 101.034V101.058L26.3893 56.6808V56.6691H26.3776V56.6456H26.3658V56.6339V56.6339Z" fill="#412780"/>
<path fill-rule="evenodd" clip-rule="evenodd" d="M26.3895 56.6808L70.7545 101.058L70.8013 101.14L70.8482 101.222L70.8834 101.315L70.9185 101.397L70.942 101.491L70.9771 101.585L71.0006 101.679L71.024 101.761L71.0357 101.854L71.0474 101.948L71.0591 102.054L71.0709 102.147V102.429L71.0591 102.534V102.628L71.0474 102.733L71.024 102.827L71.0123 102.932L70.9888 103.026L70.9654 103.132L70.942 103.225L70.9068 103.331L70.8717 103.425L70.8365 103.53L70.8013 103.636L70.7545 103.729L70.7076 103.835L70.6607 103.928L70.6139 104.034L70.5553 104.128L26.1902 59.7627L26.2488 59.6689L26.2957 59.5635L26.3426 59.458L26.3895 59.3643L26.4246 59.2588L26.4715 59.165L26.5066 59.0596L26.5418 58.9541L26.5652 58.8604L26.6004 58.7549L26.6238 58.6612L26.6355 58.5557L26.659 58.4619L26.6707 58.3565L26.6824 58.2627L26.6941 58.169L26.7058 58.0635V57.876L26.6941 57.7706V57.6768L26.6824 57.5831L26.6707 57.4893L26.6472 57.3956L26.6355 57.3018L26.6004 57.2198L26.5769 57.1261L26.5535 57.0323L26.5184 56.9503L26.4715 56.8566L26.4363 56.7745L26.3895 56.6808ZM26.1902 59.7627L70.5553 104.128L70.5084 104.221L70.4615 104.315L70.4029 104.397L70.3443 104.491L70.2857 104.585L70.2272 104.667L70.1568 104.76L70.0983 104.842L70.0279 104.936L69.9576 105.018L69.8873 105.1L69.8053 105.194L69.735 105.276L69.653 105.358L69.5709 105.452L69.4889 105.534L69.4069 105.616L69.3131 105.698L69.2311 105.78L69.1374 105.862L69.0436 105.932L68.9499 106.014L68.8561 106.096L68.7624 106.167L68.6569 106.249L68.5632 106.319L68.4577 106.389L68.3522 106.46L68.2468 106.542L68.1296 106.6L68.0241 106.671L67.907 106.741L23.5419 62.3758L23.6591 62.3055L23.7646 62.2352L23.87 62.1649L23.9755 62.0946L24.081 62.0243L24.1864 61.954L24.2919 61.8719L24.3856 61.8016L24.4911 61.7196L24.5849 61.6493L24.6786 61.5673L24.7723 61.4852L24.8661 61.4032L24.9481 61.3329L25.0419 61.2509L25.1239 61.1571L25.2059 61.0751L25.2879 60.9931L25.3583 60.911L25.4403 60.829L25.5106 60.7353L25.5926 60.6533L25.6629 60.5595L25.7215 60.4775L25.7918 60.3837L25.8504 60.3017L25.9207 60.208L25.9793 60.1259L26.0379 60.0322L26.0848 59.9384L26.1434 59.8564L26.1902 59.7627ZM23.5419 62.3758L67.907 106.741L67.8952 106.753L67.8835 106.764H67.8718L67.8601 106.776L67.8484 106.788H67.8366L67.8132 106.799L67.8015 106.811L23.4365 62.4344H23.4482L23.4599 62.4227L23.4716 62.411H23.4951L23.5068 62.3993L23.5185 62.3875H23.5302L23.5419 62.3758ZM23.4365 62.4344L67.8015 106.811L67.6843 106.87L67.5788 106.928L67.4617 106.987L67.3445 107.046L67.2273 107.104L67.1101 107.163L66.9929 107.21L66.8875 107.256L66.7703 107.303L66.6531 107.35L66.5359 107.385L66.4187 107.432L66.3016 107.467L66.1844 107.503L66.0789 107.538L65.9617 107.573L65.8446 107.608L65.7274 107.631L65.6219 107.655L65.5047 107.678L65.3875 107.702L65.2821 107.725L65.1649 107.737L65.0594 107.749L64.954 107.772L64.8368 107.784H64.7313L64.6259 107.795H64.5204L64.4149 107.807H64.3095L64.204 107.795L19.839 63.4305H20.2608L20.3663 63.4187L20.4718 63.407L20.5772 63.3953L20.6944 63.3836L20.7999 63.3719L20.9171 63.3484L21.0225 63.3367L21.1397 63.3133L21.2452 63.2898L21.3624 63.2664L21.4795 63.2312L21.5967 63.2078L21.7022 63.1727L21.8194 63.1375L21.9365 63.1024L22.0537 63.0672L22.1709 63.0203L22.2881 62.9852L22.3936 62.9383L22.5107 62.8914L22.6279 62.8445L22.7451 62.786L22.8623 62.7391L22.9795 62.6805L23.0966 62.6219L23.2021 62.5633L23.3193 62.5047L23.4365 62.4344Z" fill="#412780"/>
<path fill-rule="evenodd" clip-rule="evenodd" d="M19.8389 63.4305L64.2039 107.796H63.9695L63.8641 107.784L63.7469 107.772L63.6414 107.76L63.536 107.737L63.4305 107.714L63.325 107.69L63.2196 107.667L63.1141 107.643L63.0086 107.608L62.9149 107.585L62.8212 107.549L62.7274 107.503L62.6337 107.467L62.5399 107.421L62.4462 107.374L62.3641 107.327L62.2821 107.28L62.2001 107.221L62.1181 107.163L62.036 107.104L17.671 62.7392L17.753 62.7977L17.8351 62.8563L17.9171 62.9149L17.9991 62.9618L18.0812 63.0087L18.1749 63.0555L18.2569 63.1024L18.3507 63.1376L18.4444 63.1727L18.5499 63.2079L18.6436 63.243L18.7491 63.2782L18.8428 63.3016L18.9483 63.3251L19.0538 63.3485L19.1592 63.3719L19.2764 63.3837L19.3819 63.3954L19.4991 63.4188H19.6045L19.7217 63.4305H19.8389ZM41.1777 53.6107L85.5427 97.9757L85.5896 98.0695L85.6365 98.1515L85.6833 98.2452L85.7185 98.3273L85.7536 98.421L85.7771 98.5147L85.8005 98.6085L85.8239 98.7023L85.8474 98.796L85.8591 98.8897L85.8708 98.9835L85.8825 99.089V99.1827L85.8943 99.2764L85.8825 99.3819V99.4757L85.8708 99.5811L85.8591 99.6866L85.8474 99.7803L85.8357 99.8858L85.8122 99.9795L85.7888 100.085L85.7536 100.19L85.7302 100.296L85.695 100.39L85.6599 100.495L85.6247 100.601L85.5779 100.706L85.531 100.8L85.4841 100.905L85.4372 101.011L85.3786 101.104L41.0136 56.7394L41.0605 56.634L41.1191 56.5402L41.166 56.4348L41.2128 56.3293L41.248 56.2356L41.2949 56.1301L41.33 56.0246L41.3652 55.9192L41.3886 55.8254L41.412 55.72L41.4472 55.6145L41.4589 55.5208L41.4824 55.4153L41.4941 55.3098L41.5058 55.2161L41.5175 55.1106V54.7122L41.5058 54.6185L41.4941 54.5247L41.4824 54.431L41.4589 54.3372L41.4355 54.2435L41.412 54.1497L41.3769 54.056L41.3417 53.9622L41.3066 53.8802L41.2714 53.7865L41.2246 53.6927L41.1777 53.6107ZM38.2833 33.1039L82.6483 77.4689L82.6952 77.5275L82.7303 77.5861L82.7772 77.6447L82.8007 77.7033L82.8241 77.7736L82.8475 77.8439L82.8592 77.9142V77.9962L38.4942 33.6312L38.4825 33.5492L38.4708 33.4789L38.4591 33.4086L38.4356 33.3382L38.4005 33.2797L38.3653 33.2211L38.3302 33.1625L38.2833 33.1039Z" fill="#412780"/>
<path fill-rule="evenodd" clip-rule="evenodd" d="M38.494 33.6311L82.859 77.9961L38.4823 33.6311H38.494Z" fill="#412780"/>
<path fill-rule="evenodd" clip-rule="evenodd" d="M38.4827 33.6311L82.8594 77.9961L82.8125 83.656L38.4475 39.291L38.4827 33.6311ZM38.4475 39.291L82.8125 83.656V83.7263L38.4475 39.3496V39.291ZM55.1342 40.8495L99.4992 85.2145L99.5461 85.2731L55.1694 40.8964L55.1342 40.8495Z" fill="#412780"/>
<path fill-rule="evenodd" clip-rule="evenodd" d="M55.169 40.8965L99.5458 85.2732L99.5575 85.3084L99.5692 85.367L99.5809 85.4256L99.5926 85.4959V85.5779L99.6044 85.6599L99.5926 85.7419V85.8357L99.5809 85.9294L99.5692 86.0349L99.5575 86.1404L99.5458 86.2458L99.5223 86.363L99.5106 86.4685L99.4872 86.5857L99.4637 86.7028L99.4286 86.82L99.4052 86.9372L99.3817 87.0544L99.3466 87.1716L99.3231 87.277L99.288 87.3942L99.2528 87.4997L99.2177 87.6051L99.1825 87.7106L99.1591 87.8044L99.1239 87.8981L99.0888 87.9918L99.0536 88.0739L99.0185 88.1442L98.9833 88.2145L98.9599 88.2731L54.5831 43.9081L54.6183 43.8495L54.6534 43.7792L54.6886 43.6971L54.7237 43.6151L54.7472 43.5331L54.7823 43.4393L54.8175 43.3456L54.8527 43.2401L54.8878 43.1347L54.923 43.0292L54.9464 42.912L54.9815 42.7948L55.005 42.6894L55.0401 42.5722L55.0636 42.455L55.087 42.3378L55.1104 42.2206L55.1339 42.1035L55.1573 41.9863L55.1808 41.8808L55.1925 41.7753L55.2042 41.6699L55.2159 41.5644L55.2276 41.4707V41.1308L55.2159 41.0605L55.2042 41.0019L55.1925 40.9434L55.169 40.8965Z" fill="#412780"/>
<path fill-rule="evenodd" clip-rule="evenodd" d="M54.5833 43.908L98.96 88.273L98.9131 88.3433L98.878 88.4136L98.8311 88.4839L98.7842 88.5542L98.7374 88.6245L98.6905 88.6948L98.6436 88.7651L98.585 88.8354L98.5382 88.9058L98.4796 88.9644L98.421 89.0347L98.3624 89.105L98.3038 89.1753L98.2452 89.2339L98.1749 89.3042L98.1046 89.3745L98.046 89.4331L97.9757 89.5034L97.9054 89.562L97.8233 89.6323L97.753 89.6909L97.6827 89.7495L97.6007 89.8198L97.5187 89.8784L97.4366 89.937L97.3546 89.9955L97.2726 90.0541L97.1906 90.1127L97.1085 90.1713L97.0148 90.2299L96.921 90.2768L96.839 90.3354L52.4623 45.9704L52.556 45.9118L52.6498 45.8532L52.7318 45.8063L52.8255 45.7477L52.9076 45.6891L52.9896 45.6305L53.0716 45.5719L53.1536 45.5134L53.2357 45.443L53.306 45.3844L53.388 45.3259L53.4583 45.2555L53.5286 45.197L53.5989 45.1384L53.6692 45.0681L53.7396 44.9977L53.8099 44.9392L53.8685 44.8688L53.9388 44.7985L53.9974 44.74L54.0559 44.6696L54.1145 44.5993L54.1731 44.529L54.22 44.4587L54.2786 44.4001L54.3255 44.3298L54.3723 44.2595L54.4192 44.1892L54.4661 44.1189L54.5012 44.0486L54.5481 43.9783L54.5833 43.908Z" fill="#412780"/>
<path fill-rule="evenodd" clip-rule="evenodd" d="M52.4623 45.9705L96.839 90.3355H96.8273L96.8156 90.3472H96.8039V90.3589H96.7921L52.4271 45.9822H52.4506V45.9705H52.4623Z" fill="#412780"/>
<path fill-rule="evenodd" clip-rule="evenodd" d="M52.4271 45.9821L96.7921 90.3588L52.4271 45.9938V45.9821ZM52.4271 45.9938L96.7921 90.3588L96.7804 90.3705L52.4154 45.9938H52.4271Z" fill="#412780"/>
<path fill-rule="evenodd" clip-rule="evenodd" d="M52.4154 45.9938L96.7804 90.3705L52.4154 45.9938V45.9938Z" fill="#412780"/>
<path fill-rule="evenodd" clip-rule="evenodd" d="M52.4154 45.9938L96.7804 90.3705L96.7453 90.394L52.3685 46.0172L52.4154 45.9938ZM52.3685 46.0172L96.7453 90.394L96.6515 90.4408L96.5578 90.4877L96.464 90.5346L96.3703 90.5814L96.2765 90.6283L96.1945 90.6752L96.1008 90.7103L96.007 90.7455L95.9133 90.7924L95.8195 90.8275L95.7258 90.8627L95.6437 90.8861L95.55 90.9213L95.4563 90.9447L95.3742 90.9799L95.2805 91.0033L95.1867 91.0267L95.1047 91.0502L95.011 91.0736L94.9172 91.0853L94.8352 91.1088L94.7532 91.1205L94.6594 91.1322L94.5774 91.1439L94.4954 91.1556L94.4016 91.1674L94.3196 91.1791H94.1555L94.0735 91.1908H93.9212L49.5444 46.814H49.8725L49.9546 46.8023H50.0366L50.1186 46.7906L50.2124 46.7789L50.2944 46.7672L50.3764 46.7555L50.4702 46.7437L50.5522 46.7203L50.6459 46.6969L50.728 46.6851L50.8217 46.6617L50.9155 46.6383L50.9975 46.6148L51.0912 46.5797L51.185 46.5562L51.267 46.5211L51.3607 46.4859L51.4545 46.4508L51.5482 46.4156L51.642 46.3805L51.7357 46.3453L51.8178 46.2984L51.9115 46.2633L52.0053 46.2164L52.099 46.1695L52.1927 46.1227L52.2865 46.0758L52.3685 46.0172Z" fill="#412780"/>
<path fill-rule="evenodd" clip-rule="evenodd" d="M49.5444 46.8141L93.9211 91.1908L93.8508 91.1791H93.7219L93.6516 91.1674H93.593L93.5344 91.1556L93.4758 91.1439L93.4055 91.1322L93.3469 91.1205L93.3 91.1088L93.2414 91.0971L93.1829 91.0853L93.1243 91.0619L93.0774 91.0502L93.0305 91.0267L92.9719 91.0033L92.9251 90.9916L92.8782 90.9682L92.8313 90.9447L92.7844 90.9213L92.7493 90.8861L92.7024 90.8627L92.6673 90.8393L92.6204 90.8041L92.5852 90.7807L92.5501 90.7455L92.5149 90.7104L48.1499 46.3453L48.1851 46.3805L48.2202 46.4039L48.2554 46.4391L48.2905 46.4625L48.3374 46.4977L48.3725 46.5211L48.4194 46.5445L48.4663 46.568L48.5132 46.5914L48.56 46.6149L48.6069 46.6383L48.6538 46.6617L48.7124 46.6852L48.7592 46.6969L48.8178 46.7086L48.8647 46.732L48.9233 46.7438L48.9819 46.7555L49.0405 46.7672L49.0991 46.7789L49.1577 46.7906H49.228L49.2866 46.8023H49.3569L49.4155 46.8141H49.4858H49.5444Z" fill="#412780"/>
<path fill-rule="evenodd" clip-rule="evenodd" d="M54.5599 22.4755C67.6139 24.9832 62.1767 39.2208 62.165 39.2559C62.0982 39.4377 61.9619 39.5856 61.7861 39.6669C61.6102 39.7482 61.4093 39.7563 61.2275 39.6895C61.0457 39.6227 60.8979 39.4864 60.8166 39.3106C60.7353 39.1348 60.7271 38.9338 60.794 38.752C60.8057 38.7169 65.5398 26.3191 54.5599 23.9637V40.2871C54.0893 40.1231 53.5934 40.0437 53.0951 40.0528V17.2961C53.1177 17.1178 53.2046 16.9538 53.3394 16.835C53.4742 16.7162 53.6478 16.6506 53.8275 16.6506C54.0072 16.6506 54.1808 16.7162 54.3156 16.835C54.4504 16.9538 54.5373 17.1178 54.5599 17.2961V22.4755ZM38.4474 39.3497L38.3419 52.1928H38.3771C39.6192 52.2162 40.6504 52.6967 41.1894 53.6107C41.705 54.5247 41.5996 55.6497 41.0137 56.7394C40.3622 57.8507 39.423 58.7656 38.2951 59.3878C37.1973 60.0468 35.9427 60.3989 34.6624 60.4072C33.4203 60.3838 32.3891 59.9033 31.8501 59.0011C31.8414 58.9818 31.8336 58.9623 31.8266 58.9425C31.3345 58.0284 31.4399 56.9269 32.0258 55.8606C32.6826 54.7353 33.635 53.8113 34.7796 53.1888C35.4389 52.8112 36.1493 52.531 36.8889 52.3568L36.9709 40.3691L25.4051 44.7049V55.6848C25.8035 55.9192 26.1316 56.2356 26.3542 56.6223L26.3894 56.6809C26.8815 57.5949 26.7761 58.6964 26.1902 59.7627C25.5334 60.888 24.581 61.812 23.4364 62.4345C22.3466 63.0793 21.1051 63.423 19.8389 63.4305C18.5968 63.4071 17.5656 62.9266 17.0383 62.0126C16.511 61.0986 16.6164 59.9737 17.2141 58.8839C17.8591 57.7757 18.7899 56.8611 19.9092 56.2356C21.1248 55.512 22.5276 55.1654 23.9403 55.2395V38.4825C23.9278 38.3223 23.968 38.1623 24.0547 38.0269C24.1414 37.8916 24.2699 37.7882 24.4207 37.7326L37.4631 32.9515C37.575 32.9054 37.6965 32.8875 37.817 32.8995C37.9374 32.9114 38.0531 32.9527 38.1538 33.0199C38.2545 33.087 38.3372 33.1779 38.3945 33.2845C38.4518 33.3911 38.4821 33.5102 38.4825 33.6312L38.4474 39.2911V39.3497V39.3497ZM48.1618 44.4119C48.6846 43.5381 49.4336 42.8216 50.3296 42.3378L50.3413 42.3261L50.3765 42.3026C51.2314 41.7934 52.2055 41.5185 53.2006 41.5058C53.8802 41.5175 54.7825 40.3106 55.1692 40.8847C55.4036 41.33 54.9349 43.2753 54.5833 43.8963C54.0637 44.7686 53.3189 45.485 52.4272 45.9704L52.4155 45.9822L52.3686 46.0056C51.5171 46.5129 50.5473 46.7876 49.5562 46.8024C48.8414 46.7907 48.2672 46.5681 47.9977 46.1462C47.9834 46.1219 47.9678 46.0984 47.9508 46.0759C47.7282 45.6306 47.8337 45.033 48.1618 44.4119V44.4119Z" fill="#412780"/>
<path d="M36.877 52.6615C36.877 52.8558 36.9541 53.042 37.0915 53.1794C37.2288 53.3167 37.4151 53.3939 37.6093 53.3939C37.8036 53.3939 37.9899 53.3167 38.1272 53.1794C38.2646 53.042 38.3417 52.8558 38.3417 52.6615L38.4823 33.6312C38.4819 33.5102 38.4516 33.3911 38.3943 33.2845C38.337 33.1779 38.2543 33.087 38.1536 33.0199C38.0529 32.9527 37.9372 32.9114 37.8168 32.8995C37.6963 32.8875 37.5748 32.9054 37.4629 32.9515L24.4205 37.7326C24.2719 37.7902 24.1459 37.8944 24.0614 38.0296C23.9769 38.1648 23.9385 38.3237 23.9518 38.4825V56.1535C23.9518 56.3462 24.0283 56.531 24.1646 56.6673C24.3008 56.8035 24.4856 56.8801 24.6783 56.8801C24.871 56.8801 25.0558 56.8035 25.1921 56.6673C25.3283 56.531 25.4049 56.3462 25.4049 56.1535V38.9278L37.0176 34.6741L36.877 52.6615Z" fill="#FFFFFE"/>
<path d="M24.4206 43.5212C24.2388 43.588 24.091 43.7243 24.0097 43.9001C23.9284 44.0759 23.9202 44.2768 23.987 44.4586C24.0539 44.6405 24.1902 44.7883 24.366 44.8696C24.5418 44.9509 24.7427 44.959 24.9245 44.8922L37.9668 39.994C38.0623 39.9658 38.151 39.9183 38.2274 39.8544C38.3037 39.7905 38.3662 39.7116 38.4107 39.6226C38.4553 39.5336 38.4812 39.4364 38.4866 39.3369C38.4921 39.2375 38.477 39.138 38.4424 39.0447C38.4078 38.9513 38.3544 38.8661 38.2854 38.7942C38.2165 38.7224 38.1335 38.6655 38.0417 38.627C37.9498 38.5886 37.8511 38.5694 37.7515 38.5707C37.652 38.5721 37.5537 38.5938 37.4629 38.6347L24.4206 43.5212V43.5212ZM19.9208 56.2354C21.0186 55.5764 22.2731 55.2243 23.5535 55.2159C24.7956 55.2394 25.8268 55.7198 26.3658 56.6221L26.3893 56.6807C26.8814 57.5947 26.776 58.6962 26.1901 59.7626C25.5332 60.8879 24.5809 61.8118 23.4363 62.4343C22.3465 63.0791 21.105 63.4229 19.8388 63.4304C18.5967 63.4069 17.5655 62.9265 17.0382 62.0125C16.5108 61.0985 16.6163 59.9735 17.2139 58.8837C17.859 57.7755 18.7898 56.8609 19.9091 56.2354H19.9208ZM23.53 56.669C22.5131 56.6796 21.5175 56.9628 20.6474 57.4893C19.7548 57.9789 19.0101 58.6993 18.4912 59.5751C18.1397 60.2196 18.0459 60.8407 18.3037 61.2859C18.5615 61.7312 19.1357 61.9539 19.874 61.9773C20.8922 61.9644 21.8881 61.6769 22.7566 61.1453L23.1082 61.7781L22.7566 61.1453C23.6492 60.6557 24.3938 59.9353 24.9128 59.0595C25.2526 58.4384 25.3463 57.8291 25.112 57.3955L25.0885 57.3604L25.733 56.9971L25.1003 57.3604C24.8425 56.9151 24.2566 56.6924 23.53 56.669V56.669ZM34.7795 53.1887C35.8692 52.5439 37.1107 52.2002 38.377 52.1926C39.6191 52.2161 40.6503 52.6965 41.1893 53.6105C41.7049 54.5246 41.5995 55.6495 41.0135 56.7393C40.3621 57.8505 39.4229 58.7655 38.2949 59.3876C37.1972 60.0466 35.9426 60.3987 34.6623 60.4071C33.4202 60.3837 32.389 59.9032 31.8499 59.0009C31.8413 58.9817 31.8335 58.9622 31.8265 58.9423C31.3343 58.0283 31.4398 56.9268 32.0257 55.8604C32.6825 54.7352 33.6349 53.8112 34.7795 53.1887V53.1887ZM38.3418 53.6574C37.3286 53.6689 36.3372 53.9522 35.4709 54.4777L35.0959 53.8449L35.4591 54.4777C34.5666 54.9673 33.8219 55.6877 33.303 56.5635C32.9632 57.1846 32.8694 57.7939 33.1038 58.2275L33.1272 58.2627L32.4944 58.6259L33.1272 58.2744C33.3733 58.7079 33.9475 58.9306 34.6857 58.954C35.7027 58.9435 36.6982 58.6602 37.5684 58.1338C38.461 57.6441 39.2056 56.9238 39.7246 56.0479C40.0761 55.4034 40.1698 54.7824 39.912 54.3371C39.6542 53.9035 39.08 53.6691 38.3418 53.6457V53.6574ZM49.6264 41.0604H49.6498V41.0487C50.7357 40.4048 51.9732 40.0611 53.2356 40.0526C54.4777 40.0878 55.5089 40.5565 56.048 41.4705L55.4035 41.8455L56.0363 41.4705C56.0496 41.4971 56.0614 41.5245 56.0714 41.5525C56.5636 42.4548 56.4464 43.5446 55.8722 44.5993C55.2261 45.7136 54.2908 46.6327 53.1653 47.2593L52.7903 46.6265L53.1653 47.2593C53.15 47.2677 53.1343 47.2755 53.1184 47.2827H53.1067C52.0174 47.9286 50.7756 48.2724 49.5092 48.2788C48.2788 48.2436 47.2476 47.7749 46.7203 46.8609L47.3531 46.4976L46.7086 46.8492C46.696 46.8302 46.6842 46.8106 46.6734 46.7906C46.2047 45.8883 46.3102 44.7868 46.8844 43.7321C47.5322 42.622 48.4673 41.7072 49.5913 41.0838L49.9545 41.7166L49.603 41.0838C49.6106 41.0758 49.6184 41.068 49.6264 41.0604V41.0604ZM50.3764 42.3142C50.3649 42.3224 50.3532 42.3302 50.3412 42.3377H50.3295C49.4378 42.8231 48.693 43.5395 48.1734 44.4118C47.8218 45.0446 47.7281 45.6422 47.9507 46.0875C47.9676 46.11 47.9833 46.1335 47.9976 46.1578C48.2671 46.5796 48.8296 46.8023 49.5444 46.814C50.5575 46.8025 51.549 46.5192 52.4153 45.9937H52.4271C53.3188 45.5083 54.0635 44.7919 54.5832 43.9196C54.9347 43.2868 55.0168 42.6892 54.7941 42.2556C54.7768 42.2293 54.7611 42.2019 54.7473 42.1736C54.4895 41.7517 53.927 41.5291 53.2005 41.5174C52.2094 41.5322 51.2396 41.8069 50.3881 42.3142H50.3764Z" fill="#FFFFFE"/>
<path d="M53.0951 40.8379C53.1177 41.0162 53.2045 41.1801 53.3394 41.2989C53.4742 41.4177 53.6478 41.4833 53.8275 41.4833C54.0072 41.4833 54.1807 41.4177 54.3156 41.2989C54.4504 41.1801 54.5373 41.0162 54.5599 40.8379V17.2843C54.5373 17.106 54.4504 16.9421 54.3156 16.8233C54.1807 16.7045 54.0072 16.6389 53.8275 16.6389C53.6478 16.6389 53.4742 16.7045 53.3394 16.8233C53.2045 16.9421 53.1177 17.106 53.0951 17.2843V40.8379Z" fill="#FFFFFE"/>
<path d="M60.7938 38.752C60.727 38.9338 60.7351 39.1347 60.8165 39.3105C60.8978 39.4863 61.0456 39.6227 61.2274 39.6895C61.4092 39.7563 61.6101 39.7481 61.7859 39.6668C61.9617 39.5855 62.098 39.4377 62.1648 39.2559C62.1766 39.2207 67.7896 24.5379 53.9387 22.37C53.7476 22.3405 53.5525 22.3881 53.3965 22.5024C53.2405 22.6166 53.1362 22.7882 53.1067 22.9793C53.0772 23.1705 53.1248 23.3655 53.2391 23.5215C53.3533 23.6776 53.5249 23.7818 53.716 23.8113C65.7858 25.698 60.8055 38.7051 60.7938 38.752Z" fill="#FFFFFE"/>
</g>
</g>
<defs>
<filter id="filter0_d_907_1644" x="-8.8157" y="-5.6157" width="91.2314" height="91.2314" filterUnits="userSpaceOnUse" color-interpolation-filters="sRGB">
<feFlood flood-opacity="0" result="BackgroundImageFix"/>
<feColorMatrix in="SourceAlpha" type="matrix" values="0 0 0 0 0 0 0 0 0 0 0 0 0 0 0 0 0 0 127 0" result="hardAlpha"/>
<feOffset dx="-3.2"/>
<feGaussianBlur stdDeviation="3.2"/>
<feComposite in2="hardAlpha" operator="out"/>
<feColorMatrix type="matrix" values="0 0 0 0 0 0 0 0 0 0 0 0 0 0 0 0 0 0 0.25 0"/>
<feBlend mode="normal" in2="BackgroundImageFix" result="effect1_dropShadow_907_1644"/>
<feBlend mode="normal" in="SourceGraphic" in2="effect1_dropShadow_907_1644" result="shape"/>
</filter>
<clipPath id="clip0_907_1644">
<rect width="80" height="80" fill="white"/>
</clipPath>
</defs>
</svg>
