<svg width="21" height="33" viewBox="0 0 21 33" fill="none" xmlns="http://www.w3.org/2000/svg">
<path d="M19.1544 31.7994C20.4662 30.5966 20.5692 28.9221 19.1544 27.4517L8.13286 16.6706L19.1544 5.88945C20.5692 4.41905 20.4662 2.74174 19.1544 1.54721C17.8454 0.344403 15.6335 0.421647 14.404 1.54721C13.1745 2.66725 1.16169 14.4994 1.16169 14.4994C0.850332 14.7812 0.602692 15.1189 0.433553 15.4924C0.264415 15.8659 0.177245 16.2675 0.177245 16.6733C0.177245 17.0791 0.264415 17.4807 0.433553 17.8542C0.602692 18.2277 0.850332 18.5654 1.16169 18.8472C1.16169 18.8472 13.1745 30.6739 14.404 31.7994C15.6335 32.9278 17.8454 33.0022 19.1544 31.7994V31.7994Z" fill="#B4B4B4"/>
</svg>
