<svg width="200" height="54" viewBox="0 0 200 54" fill="none" xmlns="http://www.w3.org/2000/svg">
<g filter="url(#filter0_b_565_2495)">
<path d="M11.1111 0C4.97464 0 0 4.45361 0 9.94765V29.8429C0 35.337 4.97464 39.7906 11.1111 39.7906H84.6023L84.4444 39.9319L100.158 54L115.871 39.9319L115.714 39.7906H188.889C195.025 39.7906 200 35.337 200 29.8429V9.94765C200 4.45361 195.025 0 188.889 0H11.1111Z" fill="white" fill-opacity="0.1"/>
<path d="M100.158 53.3289L85.0991 39.847C85.1079 39.7691 85.0985 39.6886 85.0693 39.6121C84.9953 39.4185 84.8095 39.2906 84.6023 39.2906H11.1111C5.19733 39.2906 0.5 35.0103 0.5 29.8429V9.94765C0.5 4.78033 5.19733 0.5 11.1111 0.5H188.889C194.803 0.5 199.5 4.78033 199.5 9.94765V29.8429C199.5 35.0103 194.803 39.2906 188.889 39.2906H115.714C115.506 39.2906 115.32 39.4185 115.246 39.6121C115.217 39.6886 115.208 39.7691 115.217 39.847L100.158 53.3289Z" stroke="url(#paint0_linear_565_2495)" stroke-opacity="0.5" stroke-linejoin="round"/>
</g>
<defs>
<filter id="filter0_b_565_2495" x="-32" y="-32" width="264" height="118" filterUnits="userSpaceOnUse" color-interpolation-filters="sRGB">
<feFlood flood-opacity="0" result="BackgroundImageFix"/>
<feGaussianBlur in="BackgroundImageFix" stdDeviation="16"/>
<feComposite in2="SourceAlpha" operator="in" result="effect1_backgroundBlur_565_2495"/>
<feBlend mode="normal" in="SourceGraphic" in2="effect1_backgroundBlur_565_2495" result="shape"/>
</filter>
<linearGradient id="paint0_linear_565_2495" x1="100" y1="0" x2="100" y2="54" gradientUnits="userSpaceOnUse">
<stop stop-color="white" stop-opacity="0.5"/>
<stop offset="1" stop-color="white" stop-opacity="0"/>
</linearGradient>
</defs>
</svg>
