<svg width="40" height="30" viewBox="0 0 40 30" fill="none" xmlns="http://www.w3.org/2000/svg">
<path d="M12.9606 0C11.6057 0 7.52094 1.67908 6.7881 2.01464C6.05526 2.3502 5.24183 3.39771 4.31885 5.12655C3.39462 6.85538 2.65296 8.8764 1.44793 11.8492C0.244158 14.8221 -0.0366382 20.5534 0.00365542 22.3026C0.0439491 24.0519 0.24164 25.4184 2.01078 26.4531C3.77867 27.4866 5.34256 28.5686 6.9883 29.2193C8.63531 29.87 9.75849 30.3382 10.5216 29.6875C11.2846 29.0368 11.787 27.8974 11.787 27.8974C11.787 27.8974 12.5098 26.8806 11.1448 26.2707C9.7799 25.6595 9.09742 25.2321 9.15661 24.6018C9.21705 23.9715 9.31652 23.6257 9.65776 23.7074C9.99899 23.7891 10.8036 25.2525 13.8949 25.9236C16.9862 26.5948 19.9994 26.494 19.9994 26.494C19.9994 26.494 23.0138 26.596 26.1051 25.9236C29.1964 25.2525 29.9997 23.7891 30.341 23.7074C30.6822 23.6257 30.7817 23.9715 30.8421 24.6005C30.9026 25.2321 30.2201 25.6595 28.8552 26.2707C27.4902 26.8806 28.213 27.8974 28.213 27.8974C28.213 27.8974 28.7154 29.0355 29.4784 29.6875C30.2403 30.3382 31.3647 29.87 33.0104 29.2193C34.6562 28.5686 36.2213 27.4879 37.9892 26.4531C39.7584 25.4184 39.9561 24.0519 39.9963 22.3026C40.0366 20.5547 39.7558 14.8221 38.5508 11.8492C37.347 8.8764 36.6041 6.85538 35.6799 5.12655C34.7582 3.39771 33.9435 2.3502 33.2119 2.01336C32.4791 1.67908 28.393 0 27.0382 0C25.6833 0 25.2829 0.956921 25.2829 0.956921L24.8107 2.01464C24.8107 2.01464 21.6376 1.40348 20.0208 1.40221C18.404 1.40221 15.1893 2.01464 15.1893 2.01464L14.7171 0.955645C14.7171 0.955645 14.3167 0 12.9606 0ZM13.1079 12.6926H13.1583C15.1339 12.6926 16.7343 14.4444 16.7343 16.6045C16.7343 18.7659 15.1339 20.5164 13.1583 20.5164C11.1826 20.5164 9.58221 18.7659 9.58221 16.6045C9.58095 14.4648 11.1524 12.7219 13.1079 12.6926ZM26.8417 12.6926H26.8921C28.8476 12.7219 30.4178 14.4661 30.4178 16.6045C30.4178 18.7659 28.8174 20.5164 26.8417 20.5164C24.8648 20.5164 23.2657 18.7659 23.2657 16.6045C23.2657 14.4444 24.8648 12.6926 26.8417 12.6926Z" fill="black"/>
</svg>
