<svg width="36" height="36" viewBox="0 0 36 36" fill="none" xmlns="http://www.w3.org/2000/svg">
<path d="M26.4789 15.6316L18.4737 23.6368C18.2842 23.8263 18.0474 23.9211 17.8105 23.9211C17.5737 23.9211 17.3368 23.8263 17.1474 23.6368L9.52105 16.0105C9.1421 15.6316 9.1421 15.0632 9.52105 14.6842C9.9 14.3053 10.4684 14.3053 10.8474 14.6842L17.8105 21.6474L25.1526 14.3053C25.5316 13.9263 26.1 13.9263 26.4789 14.3053C26.8579 14.6368 26.8579 15.2526 26.4789 15.6316ZM36 18C36 27.9474 27.9474 36 18 36C8.05263 36 0 27.9474 0 18C0 8.05263 8.05263 0 18 0C27.9474 0 36 8.05263 36 18ZM34.1053 18C34.1053 9.09474 26.9053 1.89474 18 1.89474C9.09474 1.89474 1.89474 9.09474 1.89474 18C1.89474 26.9053 9.09474 34.1053 18 34.1053C26.9053 34.1053 34.1053 26.9053 34.1053 18Z" fill="#1D1D1D"/>
</svg>
