<svg width="40" height="33" viewBox="0 0 40 33" fill="none" xmlns="http://www.w3.org/2000/svg">
<path d="M34.5455 0H5.45455C2.44227 0 0 2.46263 0 5.5V27.5C0 30.5374 2.44227 33 5.45455 33H34.5455C37.5577 33 40 30.5374 40 27.5V5.5C40 2.46263 37.5577 0 34.5455 0ZM34.5455 3.66667C34.7555 3.66667 34.9573 3.70242 35.1445 3.76887L20 15.9857L4.85545 3.76887C5.04797 3.70086 5.25055 3.66629 5.45455 3.66667H34.5455ZM34.5455 29.3333H5.45455C4.97233 29.3333 4.50987 29.1402 4.1689 28.7964C3.82792 28.4525 3.63636 27.9862 3.63636 27.5V7.48092L18.8641 19.7647C19.1959 20.0328 19.5977 20.1667 20 20.1667C20.4023 20.1667 20.8041 20.0328 21.1359 19.7647L36.3636 7.48092V27.5C36.3636 27.9862 36.1721 28.4525 35.8311 28.7964C35.4901 29.1402 35.0277 29.3333 34.5455 29.3333Z" fill="white"/>
</svg>
