<svg width="40" height="40" viewBox="0 0 40 40" fill="none" xmlns="http://www.w3.org/2000/svg">
<path d="M38.3305 27.557L34.7588 23.9853C33.6941 22.9292 32.257 22.3337 30.7574 22.3274C29.2577 22.321 27.8156 22.9042 26.742 23.9512C26.1691 24.5274 25.4134 24.8858 24.6047 24.965C23.7961 25.0441 22.9852 24.8389 22.3115 24.3847C19.6526 22.6102 17.3683 20.3303 15.5887 17.6748C15.1425 16.9936 14.9447 16.1795 15.0287 15.3695C15.1127 14.5595 15.4733 13.8033 16.0497 13.2281C17.0873 12.1535 17.663 10.7154 17.6536 9.22163C17.6442 7.72789 17.0504 6.29716 15.9994 5.23568L12.4277 1.66401C11.3584 0.598365 9.91032 0 8.40068 0C6.89103 0 5.44293 0.598365 4.37362 1.66401L3.34595 2.6933C-2.01156 8.05081 -1.61056 19.3146 9.5363 30.4549C16.2575 37.1778 23.0226 39.9929 28.5084 39.9929C30.1232 40.0467 31.7326 39.7785 33.2427 39.204C34.7529 38.6296 36.1336 37.7603 37.3044 36.6469L38.3337 35.6176C39.4013 34.5478 40.0006 33.098 40 31.5866C39.9994 30.0753 39.3989 28.6259 38.3305 27.557ZM36.0348 33.322L35.0056 34.3513C30.7845 38.5723 21.4673 37.8012 11.8287 28.1609C2.19003 18.5207 1.41725 9.19699 5.63831 4.97592L6.65949 3.94826C7.11927 3.49013 7.74187 3.2329 8.39093 3.2329C9.03999 3.2329 9.6626 3.49013 10.1224 3.94826L13.6941 7.51993C14.1455 7.97362 14.4017 8.58578 14.4081 9.22577C14.4145 9.86576 14.1705 10.4829 13.7281 10.9455C12.6311 12.0495 11.9468 13.497 11.7899 15.0454C11.6329 16.5939 12.0129 18.1492 12.8661 19.4509C14.8882 22.477 17.4885 25.0734 20.5176 27.0911C21.8153 27.9444 23.3666 28.3266 24.9123 28.1738C26.4579 28.021 27.9044 27.3426 29.01 26.2517C29.4717 25.8042 30.0906 25.5556 30.7336 25.5596C31.3766 25.5635 31.9924 25.8196 32.4486 26.2728L36.0202 29.8445C36.2504 30.0714 36.4335 30.3415 36.5589 30.6394C36.6843 30.9373 36.7495 31.257 36.7509 31.5802C36.7523 31.9034 36.6897 32.2237 36.5668 32.5226C36.4439 32.8215 36.2631 33.0932 36.0348 33.322Z" fill="white"/>
</svg>
