<svg width="32" height="32" viewBox="0 0 32 32" fill="none" xmlns="http://www.w3.org/2000/svg">
<path d="M16 32C12.8355 32 9.74207 31.0616 7.11088 29.3035C4.4797 27.5454 2.42894 25.0466 1.21793 22.1229C0.00693257 19.1993 -0.309921 15.9823 0.307443 12.8786C0.924806 9.77486 2.44866 6.92394 4.6863 4.6863C6.92394 2.44866 9.77486 0.924806 12.8786 0.307443C15.9823 -0.309921 19.1993 0.00693257 22.1229 1.21793C25.0466 2.42894 27.5454 4.4797 29.3035 7.11088C31.0616 9.74207 32 12.8355 32 16C32 20.2435 30.3143 24.3131 27.3137 27.3137C24.3131 30.3143 20.2435 32 16 32ZM16 2.66667C13.3629 2.66667 10.7851 3.44866 8.5924 4.91374C6.39975 6.37883 4.69078 8.46121 3.68161 10.8976C2.67244 13.3339 2.4084 16.0148 2.92287 18.6012C3.43734 21.1876 4.70722 23.5634 6.57192 25.4281C8.43661 27.2928 10.8124 28.5627 13.3988 29.0771C15.9852 29.5916 18.6661 29.3276 21.1024 28.3184C23.5388 27.3092 25.6212 25.6003 27.0863 23.4076C28.5513 21.215 29.3333 18.6371 29.3333 16C29.3333 12.4638 27.9286 9.0724 25.4281 6.57192C22.9276 4.07143 19.5362 2.66667 16 2.66667Z" fill="white"/>
<path d="M22.6667 23.3333C22.3362 23.3325 22.0179 23.2089 21.7733 22.9867L15.1067 16.9867C14.9685 16.862 14.858 16.7098 14.7823 16.5399C14.7065 16.37 14.6671 16.1861 14.6667 16V9.33333C14.6667 8.97971 14.8071 8.64057 15.0572 8.39052C15.3072 8.14047 15.6464 8 16 8C16.3536 8 16.6928 8.14047 16.9428 8.39052C17.1929 8.64057 17.3333 8.97971 17.3333 9.33333V15.4L23.56 21C23.7639 21.1798 23.9079 21.4176 23.9729 21.6815C24.0378 21.9454 24.0205 22.2229 23.9233 22.4768C23.8261 22.7306 23.6537 22.9487 23.4291 23.1018C23.2045 23.2549 22.9385 23.3357 22.6667 23.3333Z" fill="white"/>
</svg>
