<svg width="40" height="23" viewBox="0 0 40 23" fill="none" xmlns="http://www.w3.org/2000/svg">
<path d="M19.5722 22.9031H21.9624C21.9624 22.9031 22.685 22.8225 23.0525 22.4219C23.3926 22.054 23.3801 21.3636 23.3801 21.3636C23.3801 21.3636 23.3326 18.131 24.8227 17.6548C26.2903 17.1862 28.1755 20.7791 30.1731 22.1624C31.6833 23.208 32.8309 22.9787 32.8309 22.9787L38.1738 22.9031C38.1738 22.9031 40.9691 22.7293 39.644 20.5146C39.5364 20.3331 38.8714 18.8768 35.6711 15.8836C32.3208 12.7492 32.7709 13.2582 36.8062 7.8386C39.2639 4.53796 40.2465 2.5223 39.939 1.66061C39.6465 0.83923 37.8388 1.05591 37.8388 1.05591L31.8283 1.09119C31.8283 1.09119 31.3832 1.03072 31.0507 1.22976C30.7282 1.42629 30.5207 1.87981 30.5207 1.87981C30.5207 1.87981 29.5681 4.43466 28.298 6.60653C25.6203 11.1896 24.5477 11.4315 24.1101 11.1468C23.0925 10.4841 23.3476 8.48109 23.3476 7.06005C23.3476 2.61805 24.0151 0.766163 22.0449 0.287444C21.3899 0.128711 20.9098 0.0228896 19.2372 0.00525258C17.092 -0.0174235 15.2744 0.0128113 14.2468 0.519245C13.5617 0.856867 13.0342 1.61022 13.3567 1.65305C13.7542 1.70596 14.6543 1.89745 15.1319 2.55254C15.7494 3.39659 15.7269 5.29635 15.7269 5.29635C15.7269 5.29635 16.0819 10.5245 14.8993 11.1745C14.0868 11.6205 12.9742 10.7109 10.5865 6.55109C9.36386 4.42206 8.43878 2.06626 8.43878 2.06626C8.43878 2.06626 8.26127 1.62786 7.94374 1.39354C7.55871 1.10882 7.01866 1.01812 7.01866 1.01812L1.30317 1.05339C1.30317 1.05339 0.445596 1.07859 0.130569 1.45401C-0.149455 1.78911 0.108067 2.47947 0.108067 2.47947C0.108067 2.47947 4.58345 13.0289 9.64888 18.3477C14.2968 23.2231 19.5722 22.9031 19.5722 22.9031Z" fill="white"/>
</svg>
