<svg width="80" height="80" viewBox="0 0 80 80" fill="none" xmlns="http://www.w3.org/2000/svg">
<g clip-path="url(#clip0_907_1676)">
<g filter="url(#filter0_d_907_1676)">
<circle cx="40" cy="40" r="40" fill="white"/>
</g>
<path d="M40 80C62.0914 80 80 62.0914 80 40C80 17.9086 62.0914 0 40 0C17.9086 0 0 17.9086 0 40C0 62.0914 17.9086 80 40 80Z" fill="#50B748"/>
<path d="M53.6597 77.5467C54.3056 77.3287 54.9458 77.0941 55.5797 76.8434C56.8079 76.3237 58.0094 75.743 59.1797 75.1034C60.3482 74.4638 61.4841 73.7663 62.583 73.0134C63.6838 72.2603 64.7463 71.4526 65.7664 70.5934C66.7856 69.7349 67.7612 68.8259 68.6897 67.87C69.6204 66.9126 70.5027 65.9091 71.333 64.8634C72.1623 63.8195 72.9388 62.7348 73.6597 61.6134C74.3804 60.4917 75.0445 59.3347 75.6497 58.1467C76.2536 56.9569 76.7976 55.7376 77.2797 54.4934C77.7625 53.2518 78.1831 51.9869 78.5397 50.7034C78.8981 49.4167 79.1918 48.1128 79.4197 46.7967L56.2197 23.5967C53.2864 24.9434 50.343 25.6867 47.5864 25.69C46.893 25.69 46.2197 25.6467 45.553 25.5534C43.5631 25.2843 41.6722 24.5211 40.053 23.3334C35.6464 26.57 29.7364 26.3 23.873 23.5867C22.9597 32.4934 23.453 39.7567 25.9397 45.9534C26.3397 46.9534 26.8197 47.9334 27.3297 48.9C27.463 49.1434 27.5897 49.3934 27.7297 49.6334C28.1464 50.38 28.6097 51.1134 29.0964 51.8434C29.263 52.0934 29.413 52.35 29.5897 52.5967C30.203 53.4667 30.8664 54.3234 31.5764 55.1767C31.793 55.4367 32.0264 55.6934 32.253 55.95C32.8664 56.6534 33.5164 57.3567 34.1997 58.0534C34.3164 58.1734 34.4164 58.2967 34.5364 58.42L53.6597 77.5467Z" fill="#10A711"/>
<path d="M40.0531 23.3334C44.4531 26.5734 50.3565 26.2967 56.2198 23.5934C56.9965 32.4534 56.4965 39.7267 54.0498 45.9267C51.5498 52.26 46.9631 57.7567 40.0498 63.3334C33.1298 57.7567 28.4731 52.2667 25.9365 45.95C23.4531 39.76 22.9598 32.4934 23.8731 23.5867C29.7398 26.2967 35.6464 26.5734 40.0531 23.3334V23.3334ZM47.4398 36.42C47.0078 36.4362 46.5986 36.6176 46.2965 36.9267L37.4998 45.7234L33.7031 41.9267C32.4798 40.6534 30.0698 43.06 31.3464 44.2834L36.3198 49.2667C36.6408 49.5666 37.0638 49.7335 37.5031 49.7335C37.9425 49.7335 38.3654 49.5666 38.6865 49.2667L48.6531 39.2767C49.6031 38.3467 48.7698 36.3834 47.4398 36.42V36.42Z" fill="white"/>
</g>
<defs>
<filter id="filter0_d_907_1676" x="-9.6" y="-6.4" width="92.8" height="92.8" filterUnits="userSpaceOnUse" color-interpolation-filters="sRGB">
<feFlood flood-opacity="0" result="BackgroundImageFix"/>
<feColorMatrix in="SourceAlpha" type="matrix" values="0 0 0 0 0 0 0 0 0 0 0 0 0 0 0 0 0 0 127 0" result="hardAlpha"/>
<feOffset dx="-3.2"/>
<feGaussianBlur stdDeviation="3.2"/>
<feComposite in2="hardAlpha" operator="out"/>
<feColorMatrix type="matrix" values="0 0 0 0 0 0 0 0 0 0 0 0 0 0 0 0 0 0 0.25 0"/>
<feBlend mode="normal" in2="BackgroundImageFix" result="effect1_dropShadow_907_1676"/>
<feBlend mode="normal" in="SourceGraphic" in2="effect1_dropShadow_907_1676" result="shape"/>
</filter>
<clipPath id="clip0_907_1676">
<rect width="80" height="80" fill="white"/>
</clipPath>
</defs>
</svg>
