<svg width="81" height="81" viewBox="0 0 81 81" fill="none" xmlns="http://www.w3.org/2000/svg">
<path d="M80.7712 40.544C80.7712 45.0806 80.0212 49.4929 78.5837 53.5944C73.1462 69.1307 58.2712 80.3167 40.7712 80.3167C40.0212 80.3167 39.3337 80.3167 38.5837 80.2546C17.5212 79.136 0.77124 61.7976 0.77124 40.544C0.77124 18.5448 18.7087 0.771362 40.7712 0.771362C62.8337 0.771362 80.7712 18.5448 80.7712 40.544Z" fill="#F0C854"/>
<path opacity="0.3" d="M79.0287 53.8964C73.5602 69.5214 58.6002 80.7714 41.0002 80.7714C40.2459 80.7714 39.5545 80.7714 38.8002 80.7089L22.8973 64.8964L22.8345 64.8339L22.7716 64.7714C22.6459 64.6464 22.5202 64.5214 22.3945 64.3339C22.2687 64.1464 22.2059 64.0214 22.143 63.8339C22.0802 63.6464 22.0173 63.4589 21.9545 63.2714C21.8916 63.0839 21.8916 62.8964 21.8916 62.7089V41.7714C21.8916 40.459 22.3945 39.1465 23.2116 38.1465L26.543 34.5215C27.0459 33.959 27.2973 33.2715 27.2973 32.5215V22.084L26.8573 21.6465C26.8573 21.6465 26.8573 21.6465 26.7945 21.584C26.7945 21.5215 26.7316 21.5215 26.7316 21.459C26.6687 21.3965 26.6687 21.2715 26.6059 21.209C26.6059 21.1465 26.6059 21.084 26.6059 21.0215V19.5215C26.6059 19.459 26.6059 19.3965 26.6059 19.334C26.6059 19.2715 26.6059 19.209 26.6687 19.1465C26.6687 19.084 26.7316 19.084 26.7316 19.0215C26.7316 19.0215 26.7316 18.959 26.7945 18.959C26.7945 18.959 26.7945 18.8965 26.8573 18.8965L26.9202 18.834C27.0459 18.709 27.1716 18.6465 27.2973 18.6465V16.7715C27.2973 16.209 27.7373 15.7715 28.303 15.7715H32.263C32.3259 15.7715 32.3887 15.7715 32.4516 15.7715C32.6402 15.834 32.8287 15.8965 32.9545 16.084L51.8745 34.8965H59.9202L79.0287 53.8964Z" fill="black"/>
<path d="M38.5486 41.7714V62.7089C38.5486 64.3964 37.1658 65.7714 35.4686 65.7714H25.0343C23.3372 65.7714 21.9543 64.3964 21.9543 62.7089V41.7714C21.9543 40.459 22.4572 39.1465 23.3372 38.1465L26.5429 34.5215C27.0458 33.959 27.2972 33.2715 27.2972 32.5215V16.7715C27.2972 16.209 27.7372 15.7715 28.3029 15.7715H32.2629C32.8286 15.7715 33.2686 16.209 33.2686 16.7715V32.5215C33.2686 33.2715 33.5201 33.959 34.0229 34.5215L37.1658 38.209C38.0458 39.1465 38.5486 40.459 38.5486 41.7714Z" fill="#2A414E"/>
<path d="M33.2685 28.709V16.7715C33.2685 16.209 32.8285 15.7715 32.2628 15.7715H28.3028C27.7371 15.7715 27.2971 16.209 27.2971 16.7715V28.709H33.2685Z" fill="#E45647"/>
<path d="M22.0173 43.2089V60.8338H31.2573C32.3888 60.8338 33.2688 59.9588 33.2688 58.8338V45.2714C33.2688 44.1464 32.3888 43.2714 31.2573 43.2714H22.0173V43.2089Z" fill="#51C7EF"/>
<path d="M26.6057 19.5214V21.0839C26.6057 21.5839 26.9829 21.9589 27.4857 21.9589H33.08C33.5829 21.9589 33.96 21.5839 33.96 21.0839V19.5214C33.96 19.0214 33.5829 18.6464 33.08 18.6464H27.4857C26.9829 18.6464 26.6057 19.0214 26.6057 19.5214Z" fill="#CD4D40"/>
<path d="M53.8858 63.0838H52.3773V50.4588C56.7144 49.3963 60.0458 43.5214 60.0458 36.3964C60.0458 35.8964 60.0458 35.3964 59.983 34.8964H41.943C41.8801 35.3964 41.8801 35.8964 41.8801 36.3964C41.8801 43.5214 45.2116 49.3963 49.5487 50.4588V63.0838H48.0401C46.5316 63.0838 45.3373 64.2713 45.3373 65.7713H56.6516C56.5887 64.2713 55.3944 63.0838 53.8858 63.0838Z" fill="#F7F8F9"/>
</svg>
