<svg width="32" height="40" viewBox="0 0 32 40" fill="none" xmlns="http://www.w3.org/2000/svg">
<path d="M31.48 12.6604L20.6 0.66036C20.413 0.453175 20.1847 0.287419 19.9298 0.173751C19.6749 0.0600829 19.3991 0.00101961 19.12 0.000359952H5.12C4.4555 -0.00756623 3.79594 0.11548 3.179 0.362472C2.56206 0.609465 1.99981 0.975566 1.52436 1.43987C1.04892 1.90417 0.669588 2.45758 0.408036 3.06849C0.146484 3.67941 0.00783275 4.33586 0 5.00036V35.0004C0.00783275 35.6649 0.146484 36.3213 0.408036 36.9322C0.669588 37.5431 1.04892 38.0965 1.52436 38.5609C1.99981 39.0252 2.56206 39.3913 3.179 39.6382C3.79594 39.8852 4.4555 40.0083 5.12 40.0004H26.88C27.5445 40.0083 28.2041 39.8852 28.821 39.6382C29.4379 39.3913 30.0002 39.0252 30.4756 38.5609C30.9511 38.0965 31.3304 37.5431 31.592 36.9322C31.8535 36.3213 31.9922 35.6649 32 35.0004V14.0004C31.9987 13.5047 31.8134 13.0272 31.48 12.6604ZM27.3 14.0004H19.42C19.0077 13.9598 18.6278 13.7588 18.3622 13.4409C18.0966 13.1229 17.9665 12.7133 18 12.3004V4.00036H18.22L27.3 14.0004ZM26.88 36.0004H5.12C4.98075 36.0085 4.84127 35.989 4.70955 35.9431C4.57783 35.8972 4.45647 35.8257 4.35242 35.7328C4.24837 35.6399 4.16369 35.5274 4.10321 35.4017C4.04273 35.276 4.00766 35.1396 4 35.0004V5.00036C4.00766 4.86108 4.04273 4.72469 4.10321 4.59899C4.16369 4.4733 4.24837 4.36078 4.35242 4.26788C4.45647 4.17497 4.57783 4.10352 4.70955 4.05762C4.84127 4.01171 4.98075 3.99225 5.12 4.00036H14V12.3004C13.9677 13.7736 14.5195 15.1998 15.5349 16.2677C16.5504 17.3356 17.947 17.9585 19.42 18.0004H28V35.0004C27.9923 35.1396 27.9573 35.276 27.8968 35.4017C27.8363 35.5274 27.7516 35.6399 27.6476 35.7328C27.5435 35.8257 27.4222 35.8972 27.2905 35.9431C27.1587 35.989 27.0193 36.0085 26.88 36.0004Z" fill="#1D1D1D"/>
</svg>
