<svg width="40" height="32" viewBox="0 0 40 32" fill="none" xmlns="http://www.w3.org/2000/svg">
<path d="M23.6247 1.37116C23.6247 3.36983 21.9985 4.99561 20.0002 4.99561C18.0016 4.99561 16.3758 3.36983 16.3758 1.37116H13.7557C13.7557 4.81436 16.557 7.61569 20.0002 7.61569C23.4434 7.61569 26.2448 4.81436 26.2448 1.37116H23.6247Z" fill="white"/>
<path d="M39.5527 9.24976L29.422 0.385142C29.1831 0.176283 28.8765 0.0611717 28.5591 0.0611572H11.4412C11.1239 0.0613064 10.8174 0.176401 10.5783 0.385142L0.4474 9.24976C-0.0635381 9.69694 -0.148226 10.4602 0.252165 11.0083L4.74998 17.1659C5.17615 17.7484 5.99365 17.8769 6.57795 17.4528L9.10764 15.6152L8.99584 30.6188C8.99466 30.7916 9.02765 30.963 9.09292 31.1231C9.15819 31.2831 9.25444 31.4287 9.37615 31.5515C9.49787 31.6742 9.64269 31.7717 9.80226 31.8381C9.96183 31.9046 10.133 31.9388 10.3058 31.9388H29.6945C29.8674 31.9388 30.0385 31.9045 30.1981 31.838C30.3576 31.7715 30.5025 31.6741 30.6242 31.5514C30.746 31.4287 30.8423 31.2831 30.9075 31.1231C30.9728 30.963 31.0058 30.7916 31.0045 30.6188L30.8923 15.6152L33.4216 17.4528C34.0062 17.8768 34.8233 17.7493 35.2499 17.1659L39.7477 11.0083C40.1483 10.4602 40.0635 9.69694 39.5527 9.24976ZM33.9055 14.5659L30.3338 11.9712C30.1375 11.8289 29.9057 11.7437 29.664 11.7251C29.4222 11.7066 29.1801 11.7553 28.9644 11.8659C28.7487 11.9767 28.568 12.1452 28.4425 12.3526C28.317 12.56 28.2515 12.7982 28.2534 13.0406L28.3748 29.3188H11.626L11.7469 13.0398C11.7487 12.7974 11.6832 12.5592 11.5577 12.3518C11.4321 12.1445 11.2516 11.9759 11.036 11.8651C10.8204 11.7545 10.5783 11.7057 10.3366 11.7243C10.095 11.7429 9.86322 11.828 9.66701 11.9703L6.09537 14.5651L3.07576 10.4315L11.9334 2.68124H28.067L36.9247 10.4323L33.9055 14.5659Z" fill="white"/>
</svg>
