<svg width="73" height="46" viewBox="0 0 73 46" fill="none" xmlns="http://www.w3.org/2000/svg">
<path fill-rule="evenodd" clip-rule="evenodd" d="M47.8661 0.00161252C47.328 0.010914 46.793 0.0604153 46.2672 0.149084L47.8661 0.00210317V0.00161252ZM38.9283 7.2376C38.9153 7.40608 38.9087 7.57511 38.9087 7.74442V37.6024C38.9087 38.6194 39.1452 39.6265 39.6047 40.5661C40.0643 41.5057 40.7378 42.3594 41.5869 43.0786C42.436 43.7977 43.444 44.3681 44.5534 44.7573C45.6629 45.1465 46.8519 45.3468 48.0527 45.3468C49.2535 45.3468 50.4426 45.1465 51.552 44.7573C52.6614 44.3681 53.6694 43.7977 54.5185 43.0786C55.3676 42.3594 56.0411 41.5057 56.5007 40.5661C56.9602 39.6265 57.1967 38.6194 57.1967 37.6024V8.04965L50.4515 6.86806C50.4565 6.8779 50.4614 6.88779 50.4663 6.8977C50.5976 7.16614 50.6652 7.45386 50.6652 7.74442L50.6653 37.6024C50.6653 37.893 50.5976 38.1807 50.4663 38.4491C50.335 38.7176 50.1426 38.9615 49.9 39.167C49.6574 39.3724 49.3694 39.5354 49.0525 39.6466C48.7355 39.7578 48.3958 39.815 48.0527 39.815C47.7096 39.815 47.3699 39.7578 47.053 39.6466C46.736 39.5354 46.448 39.3724 46.2054 39.167C45.9629 38.9615 45.7704 38.7176 45.6391 38.4491C45.5078 38.1807 45.4403 37.893 45.4403 37.6024L45.4401 7.74442C45.4401 7.45386 45.5078 7.16614 45.6391 6.8977C45.6887 6.79628 45.7471 6.69836 45.8135 6.60469L38.9283 7.2376ZM51.843 0.696651C51.7468 0.659543 51.6498 0.623821 51.552 0.589508C50.4426 0.200315 49.2535 0 48.0527 0C47.9933 0 47.9339 0.000490686 47.8745 0.00147067L51.843 0.696651Z" fill="#CB0B0B"/>
<path d="M57.1967 18.0081H57.1971C57.2061 17.3562 57.4036 16.7113 57.7791 16.1087C58.1637 15.4918 58.7272 14.9312 59.4377 14.459C60.1482 13.9868 60.9916 13.6122 61.9199 13.3567C62.8482 13.1011 63.8431 12.9696 64.8479 12.9696C65.8526 12.9696 66.8475 13.1011 67.7758 13.3567C68.7041 13.6122 69.5475 13.9868 70.258 14.459C70.9685 14.9312 71.5321 15.4918 71.9166 16.1087C72.2921 16.7113 72.4896 17.3562 72.4986 18.0081H72.499V24.5395H65.9675V18.0162C65.9617 17.9152 65.9333 17.8156 65.8833 17.722C65.827 17.6165 65.7444 17.5206 65.6404 17.4399C65.5363 17.3591 65.4127 17.2951 65.2768 17.2514C65.1408 17.2077 64.995 17.1852 64.8479 17.1852C64.7007 17.1852 64.5549 17.2077 64.4189 17.2514C64.283 17.2951 64.1594 17.3591 64.0553 17.4399C63.9513 17.5206 63.8687 17.6165 63.8124 17.722C63.7624 17.8156 63.734 17.9152 63.7282 18.0163V40.9533C63.734 41.0544 63.7624 41.1539 63.8124 41.2476C63.8687 41.3531 63.9513 41.4489 64.0553 41.5297C64.1594 41.6104 64.283 41.6745 64.4189 41.7182C64.5549 41.7619 64.7007 41.7844 64.8479 41.7844C64.995 41.7844 65.1408 41.7619 65.2768 41.7182C65.4127 41.6745 65.5363 41.6104 65.6404 41.5297C65.7444 41.4489 65.827 41.3531 65.8833 41.2476C65.9333 41.154 65.9617 41.0544 65.9675 40.9534V32.5639H72.499V40.9615H72.4986C72.4896 41.6134 72.2921 42.2582 71.9166 42.8608C71.5321 43.4778 70.9685 44.0384 70.258 44.5106C69.5475 44.9828 68.7041 45.3574 67.7758 45.6129C66.8475 45.8685 65.8526 46 64.8479 46C63.8431 46 62.8482 45.8685 61.9199 45.6129C60.9916 45.3574 60.1482 44.9828 59.4377 44.5106C58.7272 44.0384 58.1637 43.4778 57.7791 42.8608C57.4036 42.2582 57.2061 41.6134 57.1971 40.9615H57.1967V18.0081Z" fill="white"/>
<path d="M18.8012 13.6227H12.2698L9.86714 19.8349L7.4645 13.6227H0.933063L6.60142 28.2785L0 45.3469H6.53144L9.86714 36.7222L13.2028 45.3469H19.7343L13.1329 28.2785L18.8012 13.6227Z" fill="white"/>
<path fill-rule="evenodd" clip-rule="evenodd" d="M25.5659 13.6227L20.4341 45.3469H26.9655L28.0221 38.8154H32.31L33.357 45.3469H44.787C49.9637 44.746 50.5612 42.1303 51.2977 38.9061L51.3184 38.8154L57.1967 13.6227H50.6653L48.0527 24.8195L45.4401 13.6227H38.9087L44.787 38.8154H38.8785L34.8032 13.6227H25.5659ZM31.2631 32.284H29.0786L30.1758 25.5012L31.2631 32.284Z" fill="white"/>
<path d="M47.8661 0L72.499 3.63966V9.05071L47.8661 5.41105V5.41176L0.933074 9.05071V3.64072L47.8661 0.00161252L47.8661 0Z" fill="#CB0B0B"/>
</svg>
