<svg width="60" height="40" viewBox="0 0 60 40" fill="none" xmlns="http://www.w3.org/2000/svg">
<path fill-rule="evenodd" clip-rule="evenodd" d="M16.5496 3.55677L28.5906 0.133306C29.3722 -0.088915 30.2096 -0.0311494 30.9513 0.296165L39.0858 3.88576H43.2979L49.0725 1.06998C49.8722 0.679986 50.7971 0.611898 51.6479 0.880386C52.4986 1.14887 53.2073 1.73246 53.6212 2.50548L59.6126 13.6954C59.8223 14.087 59.9499 14.5154 59.9879 14.9556C60.026 15.3957 59.9738 15.8389 59.8343 16.2592C59.6949 16.6795 59.471 17.0684 59.1757 17.4034C58.8804 17.7384 58.5197 18.0127 58.1146 18.2102L52.3577 21.0174L48.6594 25.2369C48.6267 25.2748 48.5923 25.3108 48.5564 25.3446L39.6099 34.0696C39.1934 34.4758 38.6762 34.7699 38.1086 34.9232C37.541 35.0765 36.9423 35.0839 36.3709 34.9446L22.2512 31.502C21.7877 31.389 21.3537 31.1823 20.9774 30.8953L7.77609 20.828L1.88542 17.9556C1.48029 17.758 1.11956 17.4838 0.824288 17.1488C0.529018 16.8138 0.305124 16.4248 0.165672 16.0045C0.0262187 15.5843 -0.0259994 15.1411 0.0120652 14.7009C0.0501298 14.2607 0.177714 13.8324 0.387373 13.4408L6.37883 2.25084C6.79272 1.47782 7.50135 0.894223 8.35212 0.625733C9.20289 0.357241 10.1277 0.425324 10.9275 0.815322L16.5496 3.55677ZM29.4089 2.87049C29.5205 2.83874 29.6401 2.84699 29.7461 2.89375L32.5011 4.10947C32.4758 4.119 32.4506 4.12883 32.4255 4.13896C32.0117 4.30612 31.6357 4.55114 31.319 4.86002L21.7849 14.1581C21.4393 14.4951 21.1721 14.9006 21.0012 15.3471C20.8303 15.7935 20.7598 16.2706 20.7945 16.746C20.8291 17.2214 20.9681 17.6839 21.202 18.1023C21.4359 18.5208 21.7592 18.8853 22.1502 19.1712L23.4708 20.1372C25.0733 21.3093 27.0224 21.9429 29.0255 21.9429C31.0286 21.9429 32.9776 21.3093 34.5801 20.1372L36.8348 18.488L45.2978 24.4905L37.5427 32.0536C37.4832 32.1116 37.4093 32.1536 37.3282 32.1755C37.2471 32.1974 37.1616 32.1985 37.08 32.1786L22.9602 28.736C22.894 28.7199 22.832 28.6903 22.7782 28.6494L10.4199 19.2249L17.3392 6.3021L29.4089 2.87049ZM38.7377 6.73689C38.759 6.73734 38.7803 6.73734 38.8015 6.73689H42.7573L49.6861 19.6775L47.3079 22.3908L37.6812 15.5629C37.1623 15.1948 36.4578 15.1999 35.9444 15.5754L32.826 17.8563C31.7296 18.6583 30.396 19.0918 29.0255 19.0918C27.6549 19.0918 26.3214 18.6583 25.2249 17.8563L23.9043 16.8903C23.8484 16.8495 23.8023 16.7974 23.7688 16.7376C23.7354 16.6779 23.7156 16.6118 23.7106 16.5439C23.7057 16.476 23.7157 16.4078 23.7402 16.344C23.7646 16.2802 23.8027 16.2223 23.8521 16.1742L33.3862 6.87607C33.4315 6.83195 33.4852 6.79694 33.5443 6.77306C33.6034 6.74918 33.6668 6.73689 33.7308 6.73689H38.7377ZM9.62012 3.36545C9.50587 3.30974 9.37374 3.30001 9.2522 3.33837C9.13067 3.37672 9.02943 3.46009 8.97031 3.57053L2.97884 14.7605C2.94889 14.8164 2.93066 14.8776 2.92523 14.9405C2.91979 15.0034 2.92725 15.0667 2.94717 15.1267C2.96709 15.1868 2.99908 15.2424 3.04126 15.2902C3.08344 15.3381 3.13497 15.3772 3.19285 15.4055L7.93005 17.7154L14.3726 5.68288L9.62012 3.36545ZM52.07 17.9701L56.8072 15.6601C56.865 15.6319 56.9166 15.5927 56.9587 15.5449C57.0009 15.497 57.0329 15.4414 57.0528 15.3814C57.0728 15.3214 57.0802 15.2581 57.0748 15.1952C57.0693 15.1323 57.0511 15.0711 57.0212 15.0151L51.0297 3.82518C50.9706 3.71475 50.8693 3.63138 50.7478 3.59302C50.6263 3.55467 50.4941 3.5644 50.3799 3.62011L45.6274 5.93754L52.07 17.9701Z" fill="black"/>
<path d="M13.4179 30.6412C12.8086 30.1247 11.8854 30.1877 11.3557 30.7819C10.8261 31.3761 10.8907 32.2765 11.5 32.793L16.9944 37.4507C17.4 37.7946 17.8833 38.0401 18.4047 38.1672L25.7475 39.9575C26.5307 40.1484 27.3243 39.684 27.5201 38.9202C27.7159 38.1564 27.2397 37.3824 26.4565 37.1915L19.1138 35.4012C19.0393 35.3831 18.9703 35.348 18.9123 35.2989L13.4179 30.6412Z" fill="black"/>
</svg>
