<svg width="30" height="22" viewBox="0 0 30 22" fill="none" xmlns="http://www.w3.org/2000/svg">
<path d="M28.3124 17.1512C28.8841 17.4891 28.9808 17.7073 28.9969 17.75C28.9808 17.7927 28.8841 18.0109 28.3124 18.3488C27.6721 18.7273 26.6789 19.1028 25.3641 19.4315C22.7497 20.0851 19.085 20.5 15 20.5C10.915 20.5 7.2503 20.0851 4.63593 19.4315C3.32106 19.1028 2.32793 18.7273 1.6876 18.3488C1.11586 18.0109 1.01915 17.7927 1.00309 17.75C1.01915 17.7073 1.11586 17.4891 1.6876 17.1512C2.32793 16.7727 3.32106 16.3972 4.63593 16.0685C7.2503 15.4149 10.915 15 15 15C19.085 15 22.7497 15.4149 25.3641 16.0685C26.6789 16.3972 27.6721 16.7727 28.3124 17.1512Z" stroke="white" stroke-width="2" stroke-linejoin="round"/>
<path d="M25.7351 17.5185C25.7355 17.5186 25.7326 17.5217 25.725 17.5277C25.7308 17.5215 25.7346 17.5185 25.7351 17.5185ZM25.1855 17.7384C25.1979 17.7423 25.21 17.7461 25.2219 17.75C25.21 17.7539 25.1979 17.7577 25.1855 17.7616C24.6651 17.9257 23.8812 18.0819 22.8757 18.2159C20.8734 18.4829 18.0886 18.65 15 18.65C11.9114 18.65 9.1266 18.4829 7.12435 18.2159C6.11885 18.0819 5.33487 17.9257 4.81447 17.7616C4.80212 17.7577 4.78999 17.7539 4.77808 17.75C4.78999 17.7461 4.80212 17.7423 4.81447 17.7384C5.33487 17.5743 6.11885 17.4181 7.12435 17.2841C9.1266 17.0171 11.9114 16.85 15 16.85C18.0886 16.85 20.8734 17.0171 22.8757 17.2841C23.8812 17.4181 24.6651 17.5743 25.1855 17.7384ZM4.26492 17.5185C4.26538 17.5185 4.26921 17.5215 4.27501 17.5277C4.26735 17.5217 4.26445 17.5186 4.26492 17.5185ZM4.26492 17.9815C4.26445 17.9814 4.26735 17.9783 4.27501 17.9723C4.26921 17.9785 4.26538 17.9815 4.26492 17.9815ZM25.725 17.9723C25.7327 17.9783 25.7355 17.9814 25.7351 17.9815C25.7346 17.9815 25.7308 17.9785 25.725 17.9723Z" fill="white" stroke="white" stroke-width="1.2" stroke-linejoin="round"/>
<path fill-rule="evenodd" clip-rule="evenodd" d="M21.9556 5.55086C22.1322 5.66979 22.3231 5.76317 22.5228 5.82927H21.9113C21.5147 5.82927 21.1221 5.9102 20.7573 6.06717C20.3925 6.22412 20.063 6.45387 19.7887 6.74258C19.5143 7.03129 19.3008 7.37298 19.1609 7.74706C19.0211 8.12114 18.9578 8.51988 18.9749 8.91927L19.0967 12.1478C19.1104 12.544 19.2746 12.9198 19.5553 13.1976C19.836 13.4754 20.2118 13.6339 20.6052 13.6404L21.137 17.3866C21.1513 17.4875 21.2012 17.5798 21.2776 17.6465C21.354 17.7133 21.4516 17.75 21.5527 17.75H24.9477C25.0486 17.7499 25.1462 17.7131 25.2224 17.6463C25.2987 17.5796 25.3485 17.4874 25.3628 17.3866L25.8946 13.6404C26.288 13.6339 26.6638 13.4754 26.9445 13.1976C27.2252 12.9198 27.3894 12.544 27.4031 12.1478L27.5249 8.92152C27.5423 8.52196 27.4793 8.12296 27.3396 7.74863C27.1999 7.37427 26.9864 7.03232 26.712 6.74337C26.4376 6.45442 26.108 6.22446 25.743 6.06736C25.3781 5.91025 24.9853 5.82927 24.5885 5.82927H23.9757C24.3198 5.71537 24.6362 5.52118 24.897 5.25826C25.3339 4.81806 25.5796 4.22119 25.5803 3.5986C25.5803 3.13414 25.4437 2.68008 25.1877 2.29386C24.9317 1.90766 24.5678 1.60662 24.1421 1.42884C23.7163 1.25105 23.2478 1.20451 22.7958 1.2951C22.3438 1.38567 21.9286 1.60931 21.6026 1.9377C21.2768 2.26612 21.0548 2.68454 20.9649 3.14008C20.875 3.59562 20.9211 4.0678 21.0974 4.49691C21.2738 4.92602 21.5724 5.2928 21.9556 5.55086ZM21.9119 6.67561C21.6285 6.67565 21.348 6.7335 21.0874 6.84569C20.8268 6.95788 20.5914 7.12208 20.3955 7.3284C20.1995 7.53472 20.0471 7.77888 19.9472 8.04618C19.8474 8.31349 19.8023 8.59839 19.8147 8.88373L19.9365 12.1148C19.9428 12.2973 20.0194 12.4702 20.15 12.5969C20.2806 12.7235 20.455 12.794 20.6363 12.7933H20.9705C21.0715 12.7933 21.1692 12.8301 21.2455 12.8968C21.3218 12.9636 21.3716 13.0558 21.3859 13.1566L21.9178 16.9025H23.2824C23.2927 16.9025 23.3029 16.9029 23.3131 16.9037H24.5837L25.1156 13.1577C25.1299 13.0569 25.1797 12.9647 25.256 12.898C25.3323 12.8312 25.43 12.7944 25.531 12.7944H25.8647C26.0459 12.7951 26.2203 12.7247 26.351 12.598C26.4816 12.4714 26.5581 12.2985 26.5645 12.1159L26.6862 8.8871C26.6991 8.60149 26.6543 8.31623 26.5547 8.04853C26.4551 7.78084 26.3027 7.53626 26.1067 7.32957C25.9107 7.12289 25.6752 6.95838 25.4143 6.84598C25.1535 6.73359 24.8728 6.67563 24.5891 6.67561H21.9119ZM23.2502 2.09662C22.9554 2.09662 22.6673 2.18471 22.4222 2.34975C22.1771 2.5148 21.9861 2.74937 21.8733 3.02382C21.7605 3.29827 21.731 3.60027 21.7885 3.89162C21.846 4.18298 21.988 4.45061 22.1964 4.66066C22.4048 4.87072 22.6703 5.01375 22.9594 5.07171C23.2485 5.12967 23.5482 5.09993 23.8205 4.98624C24.0928 4.87256 24.3256 4.68005 24.4893 4.43305C24.6531 4.18606 24.7405 3.89566 24.7405 3.5986C24.74 3.20038 24.5829 2.81862 24.3035 2.53704C24.0241 2.25546 23.6453 2.09707 23.2502 2.09662Z" fill="#8F8F8F"/>
<path d="M21.9119 6.67561C21.6285 6.67565 21.348 6.7335 21.0874 6.84569C20.8268 6.95788 20.5914 7.12208 20.3955 7.3284C20.1995 7.53472 20.0471 7.77888 19.9472 8.04618C19.8474 8.31349 19.8023 8.59839 19.8147 8.88373L19.9365 12.1148C19.9428 12.2973 20.0194 12.4702 20.15 12.5969C20.2806 12.7235 20.455 12.794 20.6363 12.7933H20.9705C21.0715 12.7933 21.1692 12.8301 21.2455 12.8968C21.3218 12.9636 21.3716 13.0558 21.3859 13.1566L21.9178 16.9025H23.2824C23.2927 16.9025 23.3029 16.9029 23.3131 16.9037H24.5837L25.1156 13.1577C25.1299 13.0569 25.1797 12.9647 25.256 12.898C25.3323 12.8312 25.43 12.7944 25.531 12.7944H25.8647C26.0459 12.7951 26.2203 12.7247 26.351 12.598C26.4816 12.4714 26.5581 12.2985 26.5645 12.1159L26.6862 8.8871C26.6991 8.60149 26.6543 8.31623 26.5547 8.04853C26.4551 7.78084 26.3027 7.53626 26.1067 7.32957C25.9107 7.12289 25.6752 6.95838 25.4143 6.84598C25.1535 6.73359 24.8728 6.67563 24.5891 6.67561H21.9119Z" fill="#8F8F8F"/>
<path d="M22.4222 2.34975C22.6673 2.18471 22.9554 2.09662 23.2502 2.09662C23.6453 2.09707 24.0241 2.25546 24.3035 2.53704C24.5829 2.81862 24.74 3.20038 24.7405 3.5986C24.7405 3.89566 24.6531 4.18606 24.4893 4.43305C24.3256 4.68005 24.0928 4.87256 23.8205 4.98624C23.5482 5.09993 23.2485 5.12967 22.9594 5.07171C22.6703 5.01375 22.4048 4.87072 22.1964 4.66066C21.988 4.45061 21.846 4.18298 21.7885 3.89162C21.731 3.60027 21.7605 3.29827 21.8733 3.02382C21.9861 2.74937 22.1771 2.5148 22.4222 2.34975Z" fill="#8F8F8F"/>
<path fill-rule="evenodd" clip-rule="evenodd" d="M5.42779 5.55086C5.60439 5.66979 5.7953 5.76317 5.99492 5.82927H5.38347C4.98682 5.82927 4.59427 5.9102 4.22947 6.06717C3.8647 6.22412 3.5352 6.45387 3.26084 6.74258C2.98649 7.03129 2.77296 7.37298 2.6331 7.74706C2.49324 8.12114 2.42995 8.51988 2.44707 8.91927L2.56886 12.1478C2.58256 12.544 2.74675 12.9198 3.02746 13.1976C3.30817 13.4754 3.68401 13.6339 4.07734 13.6404L4.60921 17.3866C4.62349 17.4875 4.67341 17.5798 4.74975 17.6465C4.82612 17.7133 4.92381 17.75 5.02489 17.75H8.41982C8.5208 17.7499 8.61835 17.7131 8.69459 17.6463C8.77085 17.5796 8.82067 17.4874 8.83492 17.3866L9.36679 13.6404C9.76016 13.6339 10.136 13.4754 10.4167 13.1976C10.6974 12.9198 10.8616 12.544 10.8753 12.1478L10.9971 8.92152C11.0145 8.52196 10.9514 8.12296 10.8118 7.74863C10.672 7.37427 10.4585 7.03232 10.1841 6.74337C9.90975 6.45442 9.58015 6.22446 9.21521 6.06736C8.85027 5.91025 8.45751 5.82927 8.06066 5.82927H7.44791C7.79201 5.71537 8.10832 5.52118 8.36922 5.25826C8.80605 4.81806 9.05177 4.22119 9.05242 3.5986C9.05249 3.13414 8.91587 2.68008 8.65987 2.29386C8.40386 1.90766 8.03998 1.60662 7.61422 1.42884C7.18846 1.25105 6.71995 1.20451 6.26794 1.2951C5.81593 1.38567 5.40073 1.60931 5.07481 1.9377C4.74893 2.26612 4.52699 2.68454 4.43706 3.14008C4.34712 3.59562 4.39325 4.0678 4.5696 4.49691C4.74596 4.92602 5.04461 5.2928 5.42779 5.55086ZM5.38405 6.67561C5.10065 6.67565 4.82021 6.7335 4.55959 6.84569C4.29897 6.95788 4.06361 7.12208 3.86767 7.3284C3.67171 7.53472 3.51924 7.77888 3.41939 8.04618C3.31958 8.31349 3.27451 8.59839 3.28685 8.88373L3.40863 12.1148C3.41495 12.2973 3.49153 12.4702 3.62216 12.5969C3.75276 12.7235 3.92717 12.794 4.10844 12.7933H4.44266C4.5437 12.7933 4.64133 12.8301 4.71763 12.8968C4.79393 12.9636 4.84379 13.0558 4.85807 13.1566L5.38993 16.9025H6.75456C6.76485 16.9025 6.7751 16.9029 6.78531 16.9037H8.05591L8.58777 13.1577C8.60205 13.0569 8.65191 12.9647 8.72821 12.898C8.80451 12.8312 8.90214 12.7944 9.00318 12.7944H9.33685C9.51809 12.7951 9.6925 12.7247 9.82313 12.598C9.95373 12.4714 10.0303 12.2985 10.0367 12.1159L10.1584 8.8871C10.1712 8.60149 10.1265 8.31623 10.0269 8.04853C9.92728 7.78084 9.77488 7.53626 9.57888 7.32957C9.38285 7.12289 9.14734 6.95838 8.88649 6.84598C8.62563 6.73359 8.34492 6.67563 8.06124 6.67561H5.38405ZM6.72234 2.09662C6.42758 2.09662 6.13946 2.18471 5.89436 2.34975C5.64929 2.5148 5.45827 2.74937 5.34548 3.02382C5.23268 3.29827 5.20316 3.60027 5.26067 3.89162C5.31817 4.18298 5.46012 4.45061 5.66852 4.66066C5.87696 4.87072 6.1425 5.01375 6.43162 5.07171C6.7207 5.12967 7.02034 5.09993 7.29268 4.98624C7.56498 4.87256 7.79775 4.68005 7.96149 4.43305C8.12527 4.18606 8.21265 3.89566 8.21265 3.5986C8.2122 3.20038 8.05505 2.81862 7.77568 2.53704C7.49626 2.25546 7.11745 2.09707 6.72234 2.09662Z" fill="#8F8F8F"/>
<path d="M5.38405 6.67561C5.10065 6.67565 4.82021 6.7335 4.55959 6.84569C4.29897 6.95788 4.06361 7.12208 3.86767 7.3284C3.67171 7.53472 3.51924 7.77888 3.41939 8.04618C3.31958 8.31349 3.27451 8.59839 3.28685 8.88373L3.40863 12.1148C3.41495 12.2973 3.49153 12.4702 3.62216 12.5969C3.75276 12.7235 3.92717 12.794 4.10844 12.7933H4.44266C4.5437 12.7933 4.64133 12.8301 4.71763 12.8968C4.79393 12.9636 4.84379 13.0558 4.85807 13.1566L5.38993 16.9025H6.75456C6.76485 16.9025 6.7751 16.9029 6.78531 16.9037H8.05591L8.58777 13.1577C8.60205 13.0569 8.65191 12.9647 8.72821 12.898C8.80451 12.8312 8.90214 12.7944 9.00318 12.7944H9.33685C9.51809 12.7951 9.6925 12.7247 9.82313 12.598C9.95373 12.4714 10.0303 12.2985 10.0367 12.1159L10.1584 8.8871C10.1712 8.60149 10.1265 8.31623 10.0269 8.04853C9.92728 7.78084 9.77488 7.53626 9.57888 7.32957C9.38285 7.12289 9.14734 6.95838 8.88649 6.84598C8.62563 6.73359 8.34492 6.67563 8.06124 6.67561H5.38405Z" fill="#8F8F8F"/>
<path d="M5.89436 2.34975C6.13946 2.18471 6.42758 2.09662 6.72234 2.09662C7.11745 2.09707 7.49626 2.25546 7.77568 2.53704C8.05505 2.81862 8.2122 3.20038 8.21265 3.5986C8.21265 3.89566 8.12527 4.18606 7.96149 4.43305C7.79775 4.68005 7.56498 4.87256 7.29268 4.98624C7.02034 5.09993 6.7207 5.12967 6.43162 5.07171C6.1425 5.01375 5.87696 4.87072 5.66852 4.66066C5.46012 4.45061 5.31817 4.18298 5.26067 3.89162C5.20316 3.60027 5.23268 3.29827 5.34548 3.02382C5.45827 2.74937 5.64929 2.5148 5.89436 2.34975Z" fill="#8F8F8F"/>
<path fill-rule="evenodd" clip-rule="evenodd" d="M13.4115 5.77833C13.6282 5.92429 13.8625 6.03889 14.1075 6.12002H13.3571C12.8703 6.12002 12.3886 6.21934 11.9408 6.41198C11.4932 6.6046 11.0888 6.88657 10.7521 7.24089C10.4154 7.59522 10.1533 8.01456 9.98166 8.47366C9.81002 8.93276 9.73235 9.42212 9.75336 9.91228L9.90282 13.8745C9.91964 14.3608 10.1211 14.822 10.4657 15.1629C10.8102 15.5039 11.2714 15.6984 11.7541 15.7064L12.4069 20.304C12.4244 20.4278 12.4857 20.5411 12.5794 20.623C12.6731 20.7049 12.793 20.75 12.917 20.75H17.0836C17.2075 20.7498 17.3272 20.7047 17.4208 20.6228C17.5144 20.5409 17.5755 20.4277 17.593 20.304L18.2457 15.7064C18.7285 15.6984 19.1897 15.5039 19.5343 15.1629C19.8788 14.822 20.0802 14.3608 20.0971 13.8745L20.2465 9.91505C20.2679 9.42468 20.1905 8.935 20.0191 8.47559C19.8476 8.01615 19.5856 7.59648 19.2489 7.24186C18.9121 6.88724 18.5076 6.60502 18.0597 6.41221C17.6118 6.2194 17.1298 6.12002 16.6428 6.12002H15.8908C16.3131 5.98023 16.7013 5.7419 17.0214 5.41923C17.5576 4.87898 17.8591 4.14645 17.8599 3.38238C17.86 2.81235 17.6923 2.2551 17.3782 1.7811C17.064 1.30713 16.6174 0.93767 16.0949 0.71948C15.5723 0.501289 14.9973 0.444169 14.4426 0.555346C13.8879 0.666501 13.3783 0.940967 12.9783 1.344C12.5784 1.74706 12.306 2.26057 12.1956 2.81964C12.0852 3.37872 12.1418 3.95821 12.3583 4.48485C12.5747 5.01148 12.9412 5.46162 13.4115 5.77833ZM13.3578 7.15871C13.01 7.15875 12.6658 7.22975 12.346 7.36743C12.0261 7.50513 11.7373 7.70665 11.4968 7.95985C11.2563 8.21306 11.0692 8.51272 10.9467 8.84077C10.8242 9.16883 10.7689 9.51848 10.784 9.86867L10.9335 13.834C10.9412 14.0581 11.0352 14.2703 11.1955 14.4257C11.3558 14.5811 11.5698 14.6676 11.7923 14.6667H12.2025C12.3265 14.6668 12.4463 14.7119 12.54 14.7939C12.6336 14.8758 12.6948 14.9889 12.7123 15.1127L13.365 19.7099H15.0398C15.0524 19.7099 15.065 19.7104 15.0776 19.7113H16.6369L17.2897 15.114C17.3072 14.9903 17.3684 14.8771 17.462 14.7952C17.5557 14.7133 17.6755 14.6682 17.7995 14.6681H18.209C18.4314 14.669 18.6455 14.5825 18.8058 14.4271C18.9661 14.2717 19.0601 14.0595 19.0679 13.8354L19.2173 9.87281C19.233 9.52229 19.1781 9.17219 19.0559 8.84365C18.9336 8.51512 18.7466 8.21496 18.506 7.96129C18.2654 7.70764 17.9764 7.50574 17.6563 7.36779C17.3361 7.22986 16.9916 7.15873 16.6435 7.15871H13.3578ZM15.0003 1.53903C14.6385 1.53903 14.2849 1.64714 13.9841 1.8497C13.6833 2.05225 13.4489 2.34013 13.3105 2.67696C13.1721 3.01379 13.1358 3.38443 13.2064 3.74198C13.277 4.09956 13.4512 4.42802 13.707 4.68581C13.9628 4.94361 14.2887 5.11915 14.6435 5.19028C14.9983 5.26141 15.366 5.22492 15.7002 5.08538C16.0344 4.94587 16.3201 4.70961 16.5211 4.40647C16.7221 4.10334 16.8293 3.74695 16.8293 3.38238C16.8287 2.89365 16.6359 2.42513 16.293 2.07955C15.9501 1.73398 15.4852 1.53958 15.0003 1.53903Z" fill="white"/>
<path d="M13.3578 7.15871C13.01 7.15875 12.6658 7.22975 12.346 7.36743C12.0261 7.50513 11.7373 7.70665 11.4968 7.95985C11.2563 8.21306 11.0692 8.51272 10.9467 8.84077C10.8242 9.16883 10.7689 9.51848 10.784 9.86867L10.9335 13.834C10.9412 14.0581 11.0352 14.2703 11.1955 14.4257C11.3558 14.5811 11.5698 14.6676 11.7923 14.6667H12.2025C12.3265 14.6668 12.4463 14.7119 12.54 14.7939C12.6336 14.8758 12.6948 14.9889 12.7123 15.1127L13.365 19.7099H15.0398C15.0524 19.7099 15.065 19.7104 15.0776 19.7113H16.6369L17.2897 15.114C17.3072 14.9903 17.3684 14.8771 17.462 14.7952C17.5557 14.7133 17.6755 14.6682 17.7995 14.6681H18.209C18.4314 14.669 18.6455 14.5825 18.8058 14.4271C18.9661 14.2717 19.0601 14.0595 19.0679 13.8354L19.2173 9.87281C19.233 9.52229 19.1781 9.17219 19.0559 8.84365C18.9336 8.51512 18.7466 8.21496 18.506 7.96129C18.2654 7.70764 17.9764 7.50574 17.6563 7.36779C17.3361 7.22986 16.9916 7.15873 16.6435 7.15871H13.3578Z" fill="white"/>
<path d="M13.9841 1.8497C14.2849 1.64714 14.6385 1.53903 15.0003 1.53903C15.4852 1.53958 15.9501 1.73398 16.293 2.07955C16.6359 2.42513 16.8287 2.89365 16.8293 3.38238C16.8293 3.74695 16.7221 4.10334 16.5211 4.40647C16.3201 4.70961 16.0344 4.94587 15.7002 5.08538C15.366 5.22492 14.9983 5.26141 14.6435 5.19028C14.2887 5.11915 13.9628 4.94361 13.707 4.68581C13.4512 4.42802 13.277 4.09956 13.2064 3.74198C13.1358 3.38443 13.1721 3.01379 13.3105 2.67696C13.4489 2.34013 13.6833 2.05225 13.9841 1.8497Z" fill="white"/>
</svg>
