<svg width="40" height="28" viewBox="0 0 40 28" fill="none" xmlns="http://www.w3.org/2000/svg">
<path d="M39 23C39 23.1185 38.8798 23.5178 37.9195 24.0854C37.0261 24.6134 35.6669 25.1236 33.8996 25.5654C30.3804 26.4452 25.4657 27 20 27C14.5343 27 9.61959 26.4452 6.1004 25.5654C4.33312 25.1236 2.97387 24.6134 2.08053 24.0854C1.12025 23.5178 1 23.1185 1 23C1 22.8815 1.12025 22.4822 2.08053 21.9146C2.97387 21.3866 4.33312 20.8764 6.1004 20.4346C9.61959 19.5548 14.5343 19 20 19C25.4657 19 30.3804 19.5548 33.8996 20.4346C35.6669 20.8764 37.0261 21.3866 37.9195 21.9146C38.8798 22.4822 39 22.8815 39 23Z" stroke="white" stroke-width="2" stroke-linejoin="round"/>
<path d="M34.4499 22.8362C34.4502 22.8362 34.4482 22.8388 34.4429 22.8439C34.4468 22.8387 34.4495 22.8361 34.4499 22.8362ZM33.6408 22.7938C33.8718 22.8666 34.0513 22.9364 34.1854 23C34.0513 23.0636 33.8718 23.1334 33.6408 23.2062C32.9307 23.4301 31.8721 23.6402 30.5273 23.8195C27.8464 24.1769 24.1242 24.4 20 24.4C15.8758 24.4 12.1536 24.1769 9.4727 23.8195C8.12789 23.6402 7.06933 23.4301 6.35916 23.2062C6.12818 23.1334 5.94867 23.0636 5.81464 23C5.94867 22.9364 6.12818 22.8666 6.35916 22.7938C7.06933 22.5699 8.12789 22.3598 9.4727 22.1805C12.1536 21.8231 15.8758 21.6 20 21.6C24.1242 21.6 27.8464 21.8231 30.5273 22.1805C31.8721 22.3598 32.9307 22.5699 33.6408 22.7938ZM5.55014 22.8362C5.55049 22.8361 5.55317 22.8387 5.55711 22.8439C5.55176 22.8388 5.54979 22.8362 5.55014 22.8362ZM5.55014 23.1638C5.54979 23.1638 5.55176 23.1612 5.55711 23.1561C5.55317 23.1613 5.55049 23.1639 5.55014 23.1638ZM34.4429 23.1561C34.4482 23.1612 34.4502 23.1638 34.4499 23.1638C34.4495 23.1639 34.4468 23.1613 34.4429 23.1561Z" fill="white" stroke="white" stroke-width="1.2" stroke-linejoin="round"/>
<path fill-rule="evenodd" clip-rule="evenodd" d="M29.2742 6.73448C29.5097 6.89306 29.7642 7.01756 30.0304 7.1057H29.2151C28.6862 7.1057 28.1628 7.2136 27.6764 7.42289C27.1901 7.63216 26.7507 7.93849 26.3849 8.32344C26.0191 8.70838 25.7344 9.16397 25.5479 9.66275C25.3615 10.1615 25.2771 10.6932 25.2999 11.2257L25.4623 15.5304C25.4806 16.0587 25.6995 16.5598 26.0738 16.9301C26.448 17.3005 26.9492 17.5118 27.4736 17.5206L28.1828 22.5155C28.2018 22.65 28.2684 22.773 28.3701 22.862C28.472 22.951 28.6022 23 28.737 23H33.2636C33.3982 22.9998 33.5283 22.9508 33.6299 22.8618C33.7316 22.7728 33.798 22.6499 33.817 22.5155L34.5262 17.5206C35.0507 17.5118 35.5518 17.3005 35.9261 16.9301C36.3004 16.5598 36.5192 16.0587 36.5376 15.5304L36.6999 11.2287C36.7231 10.6959 36.6391 10.164 36.4528 9.66483C36.2665 9.16569 35.9819 8.70976 35.616 8.32449C35.2502 7.93923 34.8107 7.63262 34.3241 7.42314C33.8375 7.21367 33.3138 7.1057 32.7847 7.1057H31.9677C32.4265 6.95383 32.8482 6.6949 33.1961 6.34435C33.7785 5.75741 34.1062 4.96158 34.107 4.13147C34.1071 3.51219 33.925 2.90677 33.5836 2.39181C33.2423 1.87688 32.7571 1.47549 32.1894 1.23845C31.6218 1.0014 30.9971 0.939344 30.3944 1.06013C29.7917 1.18089 29.2381 1.47908 28.8036 1.91694C28.3691 2.35483 28.0731 2.91272 27.9532 3.52011C27.8333 4.1275 27.8948 4.75707 28.13 5.32922C28.3651 5.90136 28.7633 6.3904 29.2742 6.73448ZM29.2159 8.23415C28.838 8.2342 28.4641 8.31134 28.1166 8.46091C27.7691 8.61051 27.4553 8.82944 27.194 9.10453C26.9328 9.37962 26.7295 9.70517 26.5963 10.0616C26.4633 10.418 26.4032 10.7979 26.4196 11.1783L26.582 15.4864C26.5904 15.7298 26.6925 15.9603 26.8667 16.1292C27.0408 16.298 27.2734 16.3919 27.5151 16.391H27.9607C28.0954 16.3911 28.2256 16.4401 28.3273 16.5291C28.4291 16.6181 28.4955 16.7411 28.5146 16.8755L29.2237 21.87H31.0432C31.0569 21.87 31.0706 21.8705 31.0842 21.8715H32.7784L33.4875 16.877C33.5066 16.7426 33.573 16.6196 33.6748 16.5306C33.7765 16.4416 33.9067 16.3926 34.0414 16.3925H34.4863C34.7279 16.3934 34.9605 16.2995 35.1347 16.1307C35.3088 15.9618 35.4109 15.7313 35.4194 15.4879L35.5817 11.1828C35.5988 10.802 35.5391 10.4216 35.4063 10.0647C35.2735 9.70779 35.0703 9.38169 34.809 9.10609C34.5476 8.83052 34.2336 8.61118 33.8858 8.4613C33.538 8.31145 33.1637 8.23418 32.7855 8.23415H29.2159ZM31.0003 2.12882C30.6073 2.12882 30.2231 2.24628 29.8963 2.46634C29.5695 2.68639 29.3148 2.99916 29.1645 3.36509C29.0141 3.73103 28.9747 4.1337 29.0514 4.52215C29.128 4.91064 29.3173 5.26748 29.5952 5.54755C29.8731 5.82762 30.2272 6.01834 30.6126 6.09562C30.9981 6.17289 31.3976 6.13324 31.7607 5.98165C32.1238 5.83008 32.4341 5.5734 32.6525 5.24406C32.8708 4.91475 32.9873 4.52755 32.9873 4.13147C32.9868 3.60051 32.7772 3.0915 32.4047 2.71606C32.0322 2.34062 31.5271 2.12942 31.0003 2.12882Z" fill="#8F8F8F"/>
<path d="M29.2159 8.23415C28.838 8.2342 28.4641 8.31134 28.1166 8.46091C27.7691 8.61051 27.4553 8.82944 27.194 9.10453C26.9328 9.37962 26.7295 9.70517 26.5963 10.0616C26.4633 10.418 26.4032 10.7979 26.4196 11.1783L26.582 15.4864C26.5904 15.7298 26.6925 15.9603 26.8667 16.1292C27.0408 16.298 27.2734 16.3919 27.5151 16.391H27.9607C28.0954 16.3911 28.2256 16.4401 28.3273 16.5291C28.4291 16.6181 28.4955 16.7411 28.5146 16.8755L29.2237 21.87H31.0432C31.0569 21.87 31.0706 21.8705 31.0842 21.8715H32.7784L33.4875 16.877C33.5066 16.7426 33.573 16.6196 33.6748 16.5306C33.7765 16.4416 33.9067 16.3926 34.0414 16.3925H34.4863C34.7279 16.3934 34.9605 16.2995 35.1347 16.1307C35.3088 15.9618 35.4109 15.7313 35.4194 15.4879L35.5817 11.1828C35.5988 10.802 35.5391 10.4216 35.4063 10.0647C35.2735 9.70779 35.0703 9.38169 34.809 9.10609C34.5476 8.83052 34.2336 8.61118 33.8858 8.4613C33.538 8.31145 33.1637 8.23418 32.7855 8.23415H29.2159Z" fill="#8F8F8F"/>
<path d="M29.8963 2.46634C30.2231 2.24628 30.6073 2.12882 31.0003 2.12882C31.5271 2.12942 32.0322 2.34062 32.4047 2.71606C32.7772 3.0915 32.9868 3.60051 32.9873 4.13147C32.9873 4.52755 32.8708 4.91475 32.6525 5.24406C32.4341 5.5734 32.1238 5.83008 31.7607 5.98165C31.3976 6.13324 30.9981 6.17289 30.6126 6.09562C30.2272 6.01834 29.8731 5.82762 29.5952 5.54755C29.3173 5.26748 29.128 4.91064 29.0514 4.52215C28.9747 4.1337 29.0141 3.73103 29.1645 3.36509C29.3148 2.99916 29.5695 2.68639 29.8963 2.46634Z" fill="#8F8F8F"/>
<path fill-rule="evenodd" clip-rule="evenodd" d="M7.23722 6.73448C7.47268 6.89306 7.72722 7.01756 7.99339 7.1057H7.17813C6.64926 7.1057 6.12586 7.2136 5.63946 7.42289C5.1531 7.63216 4.71376 7.93849 4.34795 8.32344C3.98215 8.70838 3.69744 9.16397 3.51096 9.66275C3.32448 10.1615 3.2401 10.6932 3.26293 11.2257L3.42531 15.5304C3.44358 16.0587 3.66249 16.5598 4.03677 16.9301C4.41105 17.3005 4.91217 17.5118 5.43662 17.5206L6.14577 22.5155C6.16482 22.65 6.23138 22.773 6.33316 22.862C6.43499 22.951 6.56525 23 6.70002 23H11.2266C11.3612 22.9998 11.4913 22.9508 11.5929 22.8618C11.6946 22.7728 11.7611 22.6499 11.7801 22.5155L12.4892 17.5206C13.0137 17.5118 13.5148 17.3005 13.8891 16.9301C14.2634 16.5598 14.4823 16.0587 14.5006 15.5304L14.6629 11.2287C14.6861 10.6959 14.6021 10.164 14.4158 9.66483C14.2295 9.16569 13.9449 8.70976 13.579 8.32449C13.2132 7.93923 12.7737 7.63262 12.2871 7.42314C11.8005 7.21367 11.2768 7.1057 10.7477 7.1057H9.93071C10.3895 6.95383 10.8113 6.6949 11.1591 6.34435C11.7416 5.75741 12.0692 4.96158 12.0701 4.13147C12.0701 3.51219 11.888 2.90677 11.5467 2.39181C11.2053 1.87688 10.7201 1.47549 10.1525 1.23845C9.58477 1.0014 8.96009 0.939344 8.35742 1.06013C7.75474 1.18089 7.20114 1.47908 6.76658 1.91694C6.33207 2.35483 6.03615 2.91272 5.91624 3.52011C5.79632 4.1275 5.85783 4.75707 6.09297 5.32922C6.3281 5.90136 6.7263 6.3904 7.23722 6.73448ZM7.1789 8.23415C6.80102 8.2342 6.42711 8.31134 6.07962 8.46091C5.73213 8.61051 5.41831 8.82944 5.15706 9.10453C4.89577 9.37962 4.69248 9.70517 4.55935 10.0616C4.42627 10.418 4.36618 10.7979 4.38262 11.1783L4.545 15.4864C4.55343 15.7298 4.65553 15.9603 4.82971 16.1292C5.00384 16.298 5.23638 16.3919 5.47808 16.391H5.92371C6.05843 16.3911 6.1886 16.4401 6.29034 16.5291C6.39207 16.6181 6.45854 16.7411 6.47759 16.8755L7.18674 21.87H9.00624C9.01996 21.87 9.03363 21.8705 9.04725 21.8715H10.7414L11.4505 16.877C11.4696 16.7426 11.536 16.6196 11.6378 16.5306C11.7395 16.4416 11.8697 16.3926 12.0044 16.3925H12.4493C12.691 16.3934 12.9235 16.2995 13.0977 16.1307C13.2718 15.9618 13.3739 15.7313 13.3824 15.4879L13.5447 11.1828C13.5618 10.802 13.5022 10.4216 13.3693 10.0647C13.2365 9.70779 13.0333 9.38169 12.772 9.10609C12.5106 8.83052 12.1966 8.61118 11.8488 8.4613C11.501 8.31145 11.1267 8.23418 10.7485 8.23415H7.1789ZM8.96328 2.12882C8.57028 2.12882 8.18611 2.24628 7.8593 2.46634C7.53254 2.68639 7.27786 2.99916 7.12746 3.36509C6.97707 3.73103 6.9377 4.1337 7.01438 4.52215C7.09106 4.91064 7.28032 5.26748 7.55819 5.54755C7.83611 5.82762 8.19016 6.01834 8.57565 6.09562C8.96109 6.17289 9.36061 6.13324 9.72373 5.98165C10.0868 5.83008 10.3972 5.5734 10.6155 5.24406C10.8339 4.91475 10.9504 4.52755 10.9504 4.13147C10.9498 3.60051 10.7402 3.0915 10.3677 2.71606C9.99518 2.34062 9.4901 2.12942 8.96328 2.12882Z" fill="white"/>
<path d="M7.1789 8.23415C6.80102 8.2342 6.42711 8.31134 6.07962 8.46091C5.73213 8.61051 5.41831 8.82944 5.15706 9.10453C4.89577 9.37962 4.69248 9.70517 4.55935 10.0616C4.42627 10.418 4.36618 10.7979 4.38262 11.1783L4.545 15.4864C4.55343 15.7298 4.65553 15.9603 4.82971 16.1292C5.00384 16.298 5.23638 16.3919 5.47808 16.391H5.92371C6.05843 16.3911 6.1886 16.4401 6.29034 16.5291C6.39207 16.6181 6.45854 16.7411 6.47759 16.8755L7.18674 21.87H9.00624C9.01996 21.87 9.03363 21.8705 9.04725 21.8715H10.7414L11.4505 16.877C11.4696 16.7426 11.536 16.6196 11.6378 16.5306C11.7395 16.4416 11.8697 16.3926 12.0044 16.3925H12.4493C12.691 16.3934 12.9235 16.2995 13.0977 16.1307C13.2718 15.9618 13.3739 15.7313 13.3824 15.4879L13.5447 11.1828C13.5618 10.802 13.5022 10.4216 13.3693 10.0647C13.2365 9.70779 13.0333 9.38169 12.772 9.10609C12.5106 8.83052 12.1966 8.61118 11.8488 8.4613C11.501 8.31145 11.1267 8.23418 10.7485 8.23415H7.1789Z" fill="white"/>
<path d="M7.8593 2.46634C8.18611 2.24628 8.57028 2.12882 8.96328 2.12882C9.4901 2.12942 9.99518 2.34062 10.3677 2.71606C10.7402 3.0915 10.9498 3.60051 10.9504 4.13147C10.9504 4.52755 10.8339 4.91475 10.6155 5.24406C10.3972 5.5734 10.0868 5.83008 9.72373 5.98165C9.36061 6.13324 8.96109 6.17289 8.57565 6.09562C8.19016 6.01834 7.83611 5.82762 7.55819 5.54755C7.28032 5.26748 7.09106 4.91064 7.01438 4.52215C6.9377 4.1337 6.97707 3.73103 7.12746 3.36509C7.27786 2.99916 7.53254 2.68639 7.8593 2.46634Z" fill="white"/>
<path fill-rule="evenodd" clip-rule="evenodd" d="M17.882 7.03777C18.171 7.23239 18.4834 7.38519 18.81 7.49335H17.8095C17.1604 7.49335 16.5181 7.62578 15.9211 7.88264C15.3242 8.13947 14.785 8.51542 14.3361 8.98786C13.8872 9.46029 13.5377 10.0194 13.3089 10.6316C13.08 11.2437 12.9765 11.8962 13.0045 12.5497L13.2038 17.8327C13.2262 18.4811 13.4949 19.0961 13.9542 19.5506C14.4135 20.0051 15.0286 20.2645 15.6722 20.2753L16.5425 26.4054C16.5659 26.5704 16.6476 26.7214 16.7725 26.8306C16.8975 26.9399 17.0573 27 17.2227 27H22.7781C22.9433 26.9998 23.1029 26.9396 23.2277 26.8303C23.3525 26.7211 23.434 26.5703 23.4573 26.4054L24.3276 20.2753C24.9713 20.2645 25.5863 20.0051 26.0457 19.5506C26.505 19.0961 26.7737 18.4811 26.7961 17.8327L26.9954 12.5534C27.0239 11.8996 26.9207 11.2467 26.6921 10.6341C26.4635 10.0215 26.1141 9.46198 25.6651 8.98915C25.2161 8.51632 24.6768 8.14003 24.0796 7.88295C23.4824 7.62587 22.8397 7.49335 22.1903 7.49335H21.1877C21.7507 7.30697 22.2683 6.9892 22.6953 6.55897C23.4101 5.83864 23.8122 4.86194 23.8132 3.84317C23.8133 3.08314 23.5898 2.34013 23.1709 1.70813C22.752 1.07617 22.1565 0.58356 21.4598 0.29264C20.7631 0.00171903 19.9965 -0.0744416 19.2568 0.0737941C18.5172 0.222002 17.8377 0.587956 17.3044 1.12533C16.7712 1.66274 16.408 2.34743 16.2608 3.09286C16.1136 3.83829 16.1891 4.61094 16.4777 5.31313C16.7663 6.01531 17.255 6.61549 17.882 7.03777ZM17.8104 8.87828C17.3467 8.87833 16.8878 8.97301 16.4613 9.15658C16.0349 9.34017 15.6497 9.60886 15.3291 9.94647C15.0084 10.2841 14.7589 10.6836 14.5955 11.121C14.4322 11.5584 14.3585 12.0246 14.3787 12.4916L14.5779 17.7787C14.5883 18.0775 14.7136 18.3604 14.9273 18.5676C15.1411 18.7748 15.4264 18.8901 15.7231 18.889H16.27C16.4353 18.8891 16.5951 18.9493 16.7199 19.0585C16.8448 19.1677 16.9264 19.3186 16.9497 19.4836L17.8201 25.6132H20.0531C20.0699 25.6132 20.0867 25.6138 20.1034 25.6151H22.1826L23.0529 19.4854C23.0763 19.3205 23.1578 19.1695 23.2827 19.0603C23.4076 18.9511 23.5673 18.8909 23.7327 18.8908H24.2787C24.5752 18.892 24.8606 18.7767 25.0744 18.5695C25.2881 18.3622 25.4134 18.0793 25.4238 17.7806L25.623 12.4971C25.644 12.0297 25.5708 11.5629 25.4078 11.1249C25.2448 10.6868 24.9954 10.2866 24.6747 9.94839C24.3539 9.61019 23.9686 9.34099 23.5417 9.15705C23.1148 8.97315 22.6555 8.87831 22.1913 8.87828H17.8104ZM20.0004 1.38537C19.518 1.38537 19.0466 1.52952 18.6455 1.79959C18.2445 2.06966 17.9319 2.45351 17.7473 2.90261C17.5627 3.35172 17.5144 3.8459 17.6085 4.32264C17.7026 4.79942 17.9349 5.23736 18.2759 5.58108C18.617 5.92481 19.0515 6.15887 19.5246 6.25371C19.9977 6.34855 20.488 6.29989 20.9336 6.11384C21.3792 5.92782 21.7601 5.61281 22.0281 5.20862C22.2961 4.80446 22.4391 4.32927 22.4391 3.84317C22.4383 3.19153 22.1812 2.56684 21.724 2.10607C21.2668 1.6453 20.6469 1.38611 20.0004 1.38537Z" fill="white"/>
<path d="M17.8104 8.87828C17.3467 8.87833 16.8878 8.97301 16.4613 9.15658C16.0349 9.34017 15.6497 9.60886 15.3291 9.94647C15.0084 10.2841 14.7589 10.6836 14.5955 11.121C14.4322 11.5584 14.3585 12.0246 14.3787 12.4916L14.5779 17.7787C14.5883 18.0775 14.7136 18.3604 14.9273 18.5676C15.1411 18.7748 15.4264 18.8901 15.7231 18.889H16.27C16.4353 18.8891 16.5951 18.9493 16.7199 19.0585C16.8448 19.1677 16.9264 19.3186 16.9497 19.4836L17.8201 25.6132H20.0531C20.0699 25.6132 20.0867 25.6138 20.1034 25.6151H22.1826L23.0529 19.4854C23.0763 19.3205 23.1578 19.1695 23.2827 19.0603C23.4076 18.9511 23.5673 18.8909 23.7327 18.8908H24.2787C24.5752 18.892 24.8606 18.7767 25.0744 18.5695C25.2881 18.3622 25.4134 18.0793 25.4238 17.7806L25.623 12.4971C25.644 12.0297 25.5708 11.5629 25.4078 11.1249C25.2448 10.6868 24.9954 10.2866 24.6747 9.94839C24.3539 9.61019 23.9686 9.34099 23.5417 9.15705C23.1148 8.97315 22.6555 8.87831 22.1913 8.87828H17.8104Z" fill="white"/>
<path d="M18.6455 1.79959C19.0466 1.52952 19.518 1.38537 20.0004 1.38537C20.6469 1.38611 21.2668 1.6453 21.724 2.10607C22.1812 2.56684 22.4383 3.19153 22.4391 3.84317C22.4391 4.32927 22.2961 4.80446 22.0281 5.20862C21.7601 5.61281 21.3792 5.92782 20.9336 6.11384C20.488 6.29989 19.9977 6.34855 19.5246 6.25371C19.0515 6.15887 18.617 5.92481 18.2759 5.58108C17.9349 5.23736 17.7026 4.79942 17.6085 4.32264C17.5144 3.8459 17.5627 3.35172 17.7473 2.90261C17.9319 2.45351 18.2445 2.06966 18.6455 1.79959Z" fill="white"/>
</svg>
