<svg width="40" height="40" viewBox="0 0 40 40" fill="none" xmlns="http://www.w3.org/2000/svg">
<path d="M17.3684 10.5789L26.2632 19.4737C26.4737 19.6842 26.5789 19.9474 26.5789 20.2105C26.5789 20.4737 26.4737 20.7368 26.2632 20.9474L17.7895 29.4211C17.3684 29.8421 16.7368 29.8421 16.3158 29.4211C15.8947 29 15.8947 28.3684 16.3158 27.9474L24.0526 20.2105L15.8947 12.0526C15.4737 11.6316 15.4737 11 15.8947 10.5789C16.2632 10.1579 16.9474 10.1579 17.3684 10.5789ZM20 -8.74228e-07C31.0526 -1.35735e-06 40 8.94737 40 20C40 31.0526 31.0526 40 20 40C8.94737 40 -3.91102e-07 31.0526 -8.74228e-07 20C-1.35735e-06 8.94737 8.94737 -3.91102e-07 20 -8.74228e-07ZM20 2.10526C10.1053 2.10526 2.10526 10.1053 2.10526 20C2.10526 29.8947 10.1053 37.8947 20 37.8947C29.8947 37.8947 37.8947 29.8947 37.8947 20C37.8947 10.1053 29.8947 2.10526 20 2.10526Z" fill="black"/>
</svg>
