<svg width="40" height="36" viewBox="0 0 40 36" fill="none" xmlns="http://www.w3.org/2000/svg">
<path d="M38.6641 0.848641C38.1464 0.424272 37.5216 0.146146 36.8563 0.0438631C36.1909 -0.0584202 35.5098 0.018966 34.8856 0.267786L2.30126 13.2306C1.60442 13.5131 1.01126 13.9978 0.600488 14.6202C0.18972 15.2427 -0.0192233 15.9735 0.00139088 16.7157C0.0220051 17.4579 0.271202 18.1764 0.715906 18.7758C1.16061 19.3751 1.77979 19.8271 2.49126 20.0716L9.08234 22.3303L12.7561 34.3012C12.806 34.4611 12.8785 34.6133 12.9713 34.7533C12.9854 34.7748 13.0053 34.7908 13.0203 34.8117C13.1276 34.9592 13.2572 35.0896 13.4047 35.1983C13.4466 35.2298 13.4868 35.2593 13.5316 35.2873C13.7043 35.4001 13.8954 35.4826 14.0966 35.5312L14.1181 35.5329L14.1303 35.5381C14.2513 35.5623 14.3744 35.5746 14.4979 35.5748C14.5098 35.5748 14.5203 35.5692 14.5321 35.569C14.7184 35.5658 14.9031 35.5342 15.0795 35.4753C15.1206 35.4615 15.1558 35.4385 15.1956 35.4218C15.3272 35.3681 15.4519 35.2992 15.5671 35.2166C15.6593 35.14 15.7515 35.0635 15.8438 34.987L20.757 29.6419L28.0849 35.2354C28.7301 35.7303 29.5241 35.9993 30.3417 36C31.1985 35.9989 32.0287 35.7077 32.6934 35.175C33.3581 34.6424 33.8167 33.9008 33.9924 33.0746L39.9247 4.37936C40.0592 3.73352 40.0129 3.06382 39.7908 2.44191C39.5688 1.81999 39.1793 1.26926 38.6641 0.848641ZM15.2189 22.9007C14.9668 23.1482 14.7944 23.4634 14.7235 23.807L14.1607 26.5016L12.7351 21.8558L20.1267 18.0631L15.2189 22.9007ZM30.3134 32.4028L21.6537 25.7928C21.2914 25.5169 20.8369 25.3857 20.3808 25.4252C19.9247 25.4648 19.5005 25.6722 19.1927 26.0062L17.6192 27.7175L18.1753 25.0544L31.0538 12.3645C31.3612 12.062 31.5485 11.6611 31.5817 11.2342C31.615 10.8074 31.492 10.383 31.2351 10.0378C30.9781 9.69262 30.6042 9.44952 30.1811 9.35255C29.7579 9.25557 29.3135 9.31113 28.9284 9.50916L10.4456 18.9914L3.67382 16.5496L36.3628 3.66373L30.3134 32.4028Z" fill="#1D1D1D"/>
</svg>
