<svg width="40" height="24" viewBox="0 0 40 24" fill="none" xmlns="http://www.w3.org/2000/svg">
<path d="M19.5722 23.4031H21.9624C21.9624 23.4031 22.685 23.3225 23.0525 22.9219C23.3926 22.554 23.3801 21.8636 23.3801 21.8636C23.3801 21.8636 23.3326 18.631 24.8227 18.1548C26.2903 17.6862 28.1755 21.2791 30.1731 22.6624C31.6833 23.708 32.8309 23.4787 32.8309 23.4787L38.1738 23.4031C38.1738 23.4031 40.9691 23.2293 39.644 21.0146C39.5364 20.8331 38.8714 19.3768 35.6711 16.3836C32.3208 13.2492 32.7709 13.7582 36.8062 8.3386C39.2639 5.03796 40.2465 3.0223 39.939 2.16061C39.6465 1.33923 37.8388 1.55591 37.8388 1.55591L31.8283 1.59119C31.8283 1.59119 31.3832 1.53072 31.0507 1.72976C30.7282 1.92629 30.5207 2.37981 30.5207 2.37981C30.5207 2.37981 29.5681 4.93466 28.298 7.10653C25.6203 11.6896 24.5477 11.9315 24.1101 11.6468C23.0925 10.9841 23.3476 8.98109 23.3476 7.56005C23.3476 3.11805 24.0151 1.26616 22.0449 0.787444C21.3899 0.628711 20.9098 0.52289 19.2372 0.505253C17.092 0.482576 15.2744 0.512811 14.2468 1.01924C13.5617 1.35687 13.0342 2.11022 13.3567 2.15305C13.7542 2.20596 14.6543 2.39745 15.1319 3.05254C15.7494 3.89659 15.7269 5.79635 15.7269 5.79635C15.7269 5.79635 16.0819 11.0245 14.8993 11.6745C14.0868 12.1205 12.9742 11.2109 10.5865 7.05109C9.36386 4.92206 8.43878 2.56626 8.43878 2.56626C8.43878 2.56626 8.26127 2.12786 7.94374 1.89354C7.55871 1.60882 7.01866 1.51812 7.01866 1.51812L1.30317 1.55339C1.30317 1.55339 0.445596 1.57859 0.130569 1.95401C-0.149455 2.28911 0.108067 2.97947 0.108067 2.97947C0.108067 2.97947 4.58345 13.5289 9.64888 18.8477C14.2968 23.7231 19.5722 23.4031 19.5722 23.4031Z" fill="#1D1D1D"/>
</svg>
